<svg width="67" height="67" viewBox="0 0 67 67" fill="none" xmlns="http://www.w3.org/2000/svg">
<circle cx="33.499" cy="33.5" r="33.5" fill="#F5F5F5"/>
<path fill-rule="evenodd" clip-rule="evenodd" d="M27.7872 13.0922C25.5315 13.5342 23.667 14.9609 22.7097 16.9775C22.2585 17.9278 22.1131 18.532 22.0654 19.6548C21.9873 21.4936 22.4349 22.9562 23.4899 24.3094C23.6766 24.5488 26.1179 27.031 28.9149 29.8252L34.0003 34.9057L39.2274 29.6689C44.8558 24.0301 44.9829 23.8862 45.4835 22.5878C45.8759 21.57 45.9785 20.9139 45.9346 19.7049C45.8926 18.5519 45.7082 17.8021 45.2325 16.8505C44.4366 15.2584 42.9138 13.9307 41.2378 13.3673C38.8471 12.5638 36.133 13.1034 34.3186 14.7432L33.9991 15.0319L33.6986 14.7604C32.9149 14.0522 31.8888 13.5001 30.8247 13.2143C30.0314 13.0013 28.5542 12.9419 27.7872 13.0922ZM15.7043 22.1815C15.0791 22.2777 14.2693 23.0601 14.0767 23.7539C14.0252 23.9392 13.9976 26.3585 13.9991 30.5678L14.0013 37.0942L18.218 41.7989L22.4348 46.5035V49.7518V53H27.6309H32.827V46.2577V39.5153L28.549 35.2402C23.9946 30.6889 24.0011 30.6946 23.151 30.5938C21.9202 30.448 20.7744 31.5113 20.7744 32.7992C20.7744 33.6705 20.8734 33.8047 23.3555 36.2938L25.5971 38.5415L24.7761 39.3628L23.9552 40.184L21.5691 37.7793C19.0321 35.2226 18.856 34.9995 18.5549 33.9615C18.4367 33.554 18.4154 32.9116 18.3766 28.5747C18.3329 23.6866 18.3313 23.6482 18.16 23.3279C17.6972 22.4625 16.7505 22.0205 15.7043 22.1815ZM51.104 22.2429C50.6648 22.3842 50.0702 22.8938 49.8381 23.3279C49.6669 23.6482 49.6653 23.6866 49.6215 28.5747C49.5828 32.9116 49.5615 33.554 49.4433 33.9615C49.1422 34.9995 48.966 35.2226 46.4291 37.7793L44.043 40.184L43.2221 39.3628L42.4011 38.5415L44.6426 36.2938C47.1247 33.8047 47.2238 33.6705 47.2238 32.7992C47.2238 31.5113 46.078 30.448 44.8472 30.5938C43.9971 30.6946 44.0035 30.6889 39.4492 35.2402L35.1711 39.5153V46.2577V53H40.3673H45.5634V49.7518V46.5035L49.7812 41.7989L53.999 37.0942L53.9811 30.4115L53.9632 23.7287L53.7323 23.3119C53.341 22.605 52.744 22.2206 51.9478 22.1628C51.6413 22.1404 51.3308 22.17 51.104 22.2429Z" fill="#1964AA"/>
</svg>
