<svg width="67" height="67" viewBox="0 0 67 67" fill="none" xmlns="http://www.w3.org/2000/svg">
<circle cx="33.499" cy="33.5" r="33.5" fill="#F5F5F5"/>
<path fill-rule="evenodd" clip-rule="evenodd" d="M39.4391 8.10382C36.2167 8.6594 33.6492 11.2244 32.9988 14.5378C32.7918 15.5921 32.8538 17.2062 33.1407 18.2371C33.8946 20.9459 35.8418 22.9617 38.5513 23.8386C39.1649 24.0372 39.4498 24.0676 40.6815 24.0654C41.8959 24.0633 42.207 24.0299 42.8142 23.8365C45.024 23.133 46.844 21.5127 47.784 19.4119C48.2257 18.4252 48.4006 17.6919 48.4693 16.5415C48.6081 14.2112 47.8082 12.0507 46.1885 10.3813C44.4069 8.5451 41.8615 7.68619 39.4391 8.10382ZM25.7493 20.2034C22.8804 20.8273 20.6761 22.9167 19.8167 25.8263C19.5874 26.6027 19.5567 26.8656 19.5547 28.0732C19.5521 29.6043 19.6721 30.2184 20.2073 31.4135C21.2685 33.7834 23.2903 35.457 25.7382 35.9917C26.5713 36.1737 28.0532 36.1694 28.9312 35.9825C32.5229 35.2179 35.1365 31.8867 35.1365 28.0732C35.1365 23.0001 30.5539 19.1584 25.7493 20.2034ZM36.9665 24.8675C36.9964 24.965 37.1468 25.4185 37.3007 25.8752C37.7041 27.0717 37.8244 28.0016 37.7653 29.4631C37.6682 31.8576 36.8357 33.9722 35.3149 35.6872L34.8552 36.2055L35.4461 36.4261C39.1736 37.8176 42.0204 41.0613 42.993 45.025C43.1023 45.4706 43.2144 45.8586 43.2419 45.887C43.3379 45.986 46.1055 45.7093 47.5116 45.4602C49.7967 45.0553 51.4454 44.576 53.1222 43.829L53.999 43.4384V38.7019C53.999 34.2981 53.9853 33.8959 53.803 32.974C53.0413 29.1216 50.2271 26.0737 46.4635 25.0252L45.5156 24.761L41.2138 24.7256C37.0931 24.6917 36.9144 24.6977 36.9665 24.8675ZM22.3582 36.8717C18.1906 37.6098 14.9393 40.9125 14.148 45.2116C14.0253 45.8786 13.999 46.8624 13.999 50.7933V55.5652L14.9591 55.8705C19.6257 57.3547 24.7955 58.1261 29.1175 57.9831C33.4467 57.8399 37.1863 57.0716 39.9943 55.7484L40.6341 55.4469V50.6831C40.6341 45.4925 40.6103 45.1882 40.0821 43.6085C39.5217 41.9328 38.331 40.2034 36.9369 39.0403C35.9424 38.2106 34.379 37.3964 33.0986 37.0412L32.1507 36.7783L27.6483 36.7552C24.0964 36.7371 22.9797 36.7616 22.3582 36.8717Z" fill="#1964AA"/>
</svg>
