<svg width="67" height="67" viewBox="0 0 67 67" fill="none" xmlns="http://www.w3.org/2000/svg">
<circle cx="33.5" cy="33.5" r="33.5" fill="#F5F5F5"/>
<path fill-rule="evenodd" clip-rule="evenodd" d="M32.923 14.1483C32.7537 14.2295 32.3209 14.5674 31.9612 14.8993C29.8191 16.8759 27.4546 18.2086 24.6821 19.0019C23.1071 19.4527 20.7299 19.78 18.9733 19.7881C17.8802 19.7931 17.493 19.9683 17.1654 20.6058C17.0069 20.9142 17.0046 20.9968 17.0004 26.3933C16.9959 32.3201 17.0203 32.8056 17.4661 35.661C18.8554 44.5615 23.6062 50.339 32.2637 53.6569C33.5474 54.1489 33.5286 54.1504 35.3718 53.4079C37.8608 52.4052 40.2525 51.0187 42.0968 49.5093C43.0965 48.6912 44.687 47.0195 45.4647 45.9698C47.5531 43.1506 48.8648 39.8088 49.5418 35.5828C49.9758 32.8736 50.0041 32.3058 49.9996 26.3933C49.9955 20.9335 49.995 20.9178 49.8287 20.5937C49.6275 20.2019 49.3486 19.9659 48.9742 19.8709C48.8211 19.832 48.1245 19.7804 47.4263 19.7562C42.4445 19.5831 38.3453 17.976 35.0388 14.8995C34.0735 14.0013 33.5884 13.8291 32.923 14.1483ZM40.0908 28.8247C40.5919 29.3662 41.0123 29.8385 41.0253 29.8742C41.0383 29.9099 39.0886 31.816 36.6927 34.11C32.2673 38.3474 31.9332 38.6319 31.3841 38.6302C30.8273 38.6285 30.5966 38.4204 28.3832 35.9247C27.2054 34.5967 26.1803 33.4396 26.105 33.3534C25.9712 33.1999 25.9897 33.1773 26.9835 32.2854C27.5419 31.7843 28.0223 31.3621 28.0512 31.3473C28.0799 31.3325 28.8525 32.1651 29.768 33.1974C30.6835 34.2298 31.4736 35.0818 31.5237 35.0909C31.5739 35.0998 33.2942 33.4742 35.3466 31.4783C37.399 29.4824 39.1011 27.8473 39.1291 27.8448C39.1571 27.8422 39.5899 28.2832 40.0908 28.8247Z" fill="#1964AA"/>
</svg>
