<svg width="67" height="67" viewBox="0 0 67 67" fill="none" xmlns="http://www.w3.org/2000/svg">
<circle cx="33.5" cy="33.5" r="33.5" fill="#F5F5F5"/>
<path fill-rule="evenodd" clip-rule="evenodd" d="M33.0269 13.0182C32.898 13.0365 32.5114 13.0891 32.1677 13.135C31.0959 13.2781 29.7096 13.7113 28.6907 14.2215C25.103 16.018 22.6775 19.3127 22.0422 23.2529C21.8745 24.2926 21.9094 26.3052 22.1127 27.3227C22.3316 28.418 22.68 29.4766 23.1054 30.3383C23.2885 30.7093 25.6479 34.7287 28.3485 39.2702L33.2586 47.5275H34.0033H34.748L39.6582 39.2702C42.3587 34.7287 44.7182 30.7093 44.9013 30.3383C45.3266 29.4766 45.6751 28.418 45.8939 27.3227C46.0972 26.3052 46.1322 24.2926 45.9645 23.2529C45.1258 18.0521 41.0487 13.9459 35.9171 13.134C35.3261 13.0405 33.4084 12.9637 33.0269 13.0182ZM34.7313 22.0799C35.9971 22.4099 36.8243 23.3083 37.0676 24.6175C37.2363 25.5258 36.8882 26.5883 36.1942 27.2829C35.5002 27.9774 34.4386 28.3259 33.5311 28.157C32.1446 27.899 31.1969 26.9504 30.9391 25.5628C30.7715 24.6608 31.1184 23.5921 31.8005 22.9093C32.5981 22.1111 33.6784 21.8054 34.7313 22.0799ZM17.3036 44.8148L14 51.4755L14.0034 52.2378L14.0066 53H34.0033H54V52.2488V51.4976L50.6607 44.8214L47.3214 38.1452L45.1766 38.1652L43.0318 38.1851L39.5558 44.029L36.0799 49.8728H34.0033H31.9267L28.4508 44.029L24.9748 38.1851L22.791 38.1696L20.6071 38.1541L17.3036 44.8148Z" fill="#1964AA"/>
</svg>
