<svg width="67" height="67" viewBox="0 0 67 67" fill="none" xmlns="http://www.w3.org/2000/svg">
<circle cx="33.5" cy="33.5" r="33.5" fill="#F5F5F5"/>
<path fill-rule="evenodd" clip-rule="evenodd" d="M14.2305 14.2305L14 14.4609V34V53.5391L14.2305 53.7695L14.4609 54H17.6088H20.7566L20.7821 47.8103L20.8075 41.6207L21.0351 41.3784L21.2628 41.1362H25.9361H30.6092L30.8727 41.3627L31.1362 41.5893L31.1616 47.7946L31.187 54H34.5654H37.9437V34.2305V14.4609L37.7131 14.2305L37.4827 14H25.9718H14.4609L14.2305 14.2305ZM32.361 21.4606C32.7099 21.8093 32.7037 22.2936 32.3464 22.615L32.1115 22.8263H25.9718H19.8321L19.5733 22.6038C19.3762 22.4342 19.3146 22.297 19.3146 22.0282C19.3146 21.7593 19.3762 21.6222 19.5733 21.4526L19.8321 21.23H25.9813H32.1306L32.361 21.4606ZM40.0197 24.9292C39.5223 25.2049 39.5469 24.4413 39.5432 39.7512L39.5399 54H46.5394H53.5391L53.7695 53.7695L54 53.5391V42.6605C54 32.1379 53.9942 31.7757 53.8232 31.5921C53.6317 31.3866 40.5735 24.796 40.3685 24.8014C40.3001 24.8033 40.1432 24.8608 40.0197 24.9292ZM32.2192 27.6637C32.665 27.8942 32.7444 28.5117 32.379 28.9061L32.1832 29.1174H25.9718H19.7605L19.567 28.9061C19.4608 28.7899 19.3455 28.6019 19.3111 28.4883C19.2307 28.2228 19.4844 27.7255 19.7561 27.6161C19.8696 27.5704 22.6582 27.5303 25.9531 27.527C31.1343 27.522 31.9808 27.5404 32.2192 27.6637ZM32.0592 33.9131C32.8307 34.1273 32.8183 35.1905 32.0418 35.4063C31.5655 35.5385 20.3653 35.5349 19.8879 35.4023C19.621 35.3283 19.4929 35.2223 19.3775 34.9804C19.2346 34.6807 19.2346 34.6338 19.3785 34.3321C19.4867 34.1052 19.6266 33.9802 19.8419 33.9181C20.2857 33.79 31.5994 33.7854 32.0592 33.9131ZM49.7674 35.8393C50.1408 36.1535 50.1652 36.6226 49.8258 36.962L49.5954 37.1925H46.8338C44.2249 37.1925 44.0593 37.1823 43.8362 37.0069C43.7064 36.9047 43.5805 36.7181 43.5564 36.5922C43.4954 36.273 43.7158 35.7976 43.9727 35.6945C44.091 35.647 45.3782 35.6054 46.8331 35.6022L49.4786 35.5962L49.7674 35.8393ZM49.8258 41.1789C50.1243 41.4773 50.1258 41.8899 49.8299 42.2342L49.6034 42.4977L46.9488 42.5254C44.152 42.5546 43.8593 42.5201 43.6541 42.1366C43.4923 41.8344 43.5448 41.4177 43.7757 41.172L43.9858 40.9484H46.7906H49.5954L49.8258 41.1789ZM49.7674 46.4497C50.1408 46.7639 50.1652 47.233 49.8258 47.5723L49.5954 47.8028H46.7906C44.0025 47.8028 43.9846 47.8016 43.79 47.5915C43.5637 47.3473 43.5118 47.1094 43.6066 46.7488C43.7381 46.248 43.9392 46.2145 46.8331 46.2103L49.4786 46.2066L49.7674 46.4497Z" fill="#1964AA"/>
</svg>
