<svg width="67" height="67" viewBox="0 0 67 67" fill="none" xmlns="http://www.w3.org/2000/svg">
<circle cx="33.5" cy="33.5" r="33.5" fill="#F5F5F5"/>
<path fill-rule="evenodd" clip-rule="evenodd" d="M34.2321 14.2289L34 14.4573V17.5058V20.5542L34.1917 20.7734L34.3833 20.9927L43.917 21.0131L53.4508 21.0336L53.7112 20.8048L53.9716 20.5759L53.9951 17.7202C54.0106 15.8433 53.9892 14.7568 53.9327 14.5503C53.7712 13.9605 54.5016 14.0006 43.9241 14.0006H34.4643L34.2321 14.2289ZM51.5237 16.2259C51.919 16.4983 51.8888 17.186 51.4721 17.3979C51.2717 17.4999 50.529 17.5161 46.0682 17.5161H40.8965L40.6643 17.2878C40.5059 17.1319 40.4322 16.9812 40.4322 16.813C40.4322 16.6449 40.5059 16.4941 40.6643 16.3383L40.8965 16.1099H46.126C50.6214 16.1099 51.379 16.1262 51.5237 16.2259ZM28.2918 21.2466C28.0954 21.4414 28.0464 21.6194 27.7667 23.1587C27.597 24.0922 27.4756 24.8732 27.4968 24.8942C27.5181 24.9151 27.8734 24.8599 28.2863 24.7717C29.4662 24.5193 31.5361 24.4831 32.7868 24.6929C33.3207 24.7825 33.842 24.8766 33.9454 24.9021L34.1334 24.9485L33.8793 23.5797L33.6252 22.2109L33.2745 21.8752C33.0815 21.6906 32.8757 21.4252 32.8169 21.2856L32.7102 21.0317H30.6094H28.5085L28.2918 21.2466ZM35.5652 22.77C35.6392 22.9526 36.2786 24.5258 36.9861 26.266L38.2725 29.43H43.978H49.6835L51.0895 25.9926C51.8629 24.102 52.4971 22.5287 52.499 22.4965C52.5009 22.4644 48.6614 22.438 43.9666 22.438H35.4307L35.5652 22.77ZM18.9693 25.8601C17.056 27.7501 17.1048 27.6485 17.7012 28.5045C17.9086 28.8023 18.3778 29.4726 18.7438 29.9942L19.4093 30.9424L19.7816 30.3815C20.6887 29.0146 22.0402 27.6734 23.4565 26.7347L24.1493 26.2754L22.6513 25.2551C21.45 24.4368 21.1 24.2348 20.8839 24.2348C20.639 24.2348 20.465 24.3825 18.9693 25.8601ZM29.5134 26.0074C27.5519 26.2577 25.8007 26.8958 24.1732 27.9529C23.2026 28.5833 21.7114 30.0661 21.0319 31.0764C18.9454 34.1788 18.4637 37.9324 19.7091 41.383C21.7483 47.0328 27.8308 50.2136 33.7221 48.7107C35.7589 48.1911 37.5732 47.1769 39.0456 45.735C39.6904 45.1034 40.4322 44.2143 40.4322 44.073C40.4322 44.0357 40.2729 43.8898 40.078 43.7487L39.7237 43.4923L39.7206 41.0119L39.7175 38.5315L39.4595 38.5307C39.066 38.5295 38.4316 38.2002 38.1094 37.8298C37.7378 37.4028 37.5735 36.9189 37.5735 36.252V35.719L37.3154 35.7182C36.6505 35.7163 35.8016 35.0471 35.5528 34.3288C35.3787 33.826 35.3767 31.3544 35.5501 30.871C35.746 30.3246 36.0818 29.9672 36.7633 29.5794C36.7762 29.572 36.5508 28.9855 36.2623 28.2761L35.7377 26.9862L35.0078 26.7129C34.1187 26.3798 33.1519 26.1414 32.2551 26.0341C31.6158 25.9575 30.025 25.942 29.5134 26.0074ZM28.8025 28.2696C29.148 28.6365 29.0309 29.1636 28.5609 29.3568C28.215 29.4989 27.8452 29.3797 27.6846 29.0739C27.5182 28.7574 27.5389 28.5774 27.7734 28.3033C28.0511 27.9786 28.5141 27.9634 28.8025 28.2696ZM26.5283 29.5045C26.9113 29.6993 27.0213 30.2153 26.7508 30.5474C26.7052 30.6035 26.4243 30.7892 26.1265 30.9603C23.9476 32.2123 22.8134 34.2683 22.5971 37.3584C22.548 38.0608 22.5151 38.1971 22.3577 38.3519C22.0956 38.6098 21.6243 38.5987 21.3678 38.3289C21.1872 38.1388 21.1765 38.0777 21.1943 37.3359C21.2772 33.8941 22.9322 31.016 25.6223 29.6357C26.1658 29.3569 26.2222 29.3488 26.5283 29.5045ZM37.0535 31.082C36.8629 31.2844 36.8588 31.3167 36.8588 32.5968C36.8588 34.31 36.823 34.259 38.0625 34.3128L38.9631 34.3518L39.0029 35.5894C39.0408 36.7729 39.0507 36.8335 39.23 36.9761C39.4097 37.119 39.609 37.1252 44.0006 37.1252H48.5837L48.7763 36.9238C48.9601 36.7316 48.9699 36.6684 48.9942 35.5176L49.0197 34.3128H49.8737C50.6892 34.3128 50.7365 34.3036 50.9204 34.1111C51.1085 33.9141 51.1128 33.8796 51.1128 32.581V31.2524L50.89 31.0638L50.6672 30.8753H43.9577H37.2483L37.0535 31.082ZM16.1328 34.5572C14.65 34.8244 14.3994 34.8904 14.227 35.0593L14.0285 35.2536L14.0043 37.2636C13.991 38.3691 14.0098 39.4111 14.0461 39.5793C14.1535 40.077 14.3229 40.1467 16.2562 40.4889C17.2139 40.6584 18.0106 40.7971 18.0266 40.7971C18.0426 40.7971 18.0358 40.7461 18.0115 40.6839C17.8938 40.3822 17.7138 39.3073 17.639 38.4596C17.5289 37.2116 17.7207 35.0933 18.0115 34.3479C18.068 34.2032 18.1438 34.1947 16.1328 34.5572ZM32.1935 34.688C34.607 35.8569 34.5573 39.2254 32.1094 40.3778C31.4553 40.6858 30.4609 40.7307 29.7692 40.4836C29.1249 40.2534 28.6677 39.9391 28.2857 39.4636C27.1081 37.9979 27.4753 35.8706 29.0811 34.8568C29.6793 34.4792 30.0474 34.39 30.9093 34.4136C31.5832 34.4321 31.7297 34.4633 32.1935 34.688ZM41.1469 40.6617V42.7938L42.2162 43.5728L43.2853 44.3517L43.2882 45.1028C43.2908 45.8083 43.3037 45.8663 43.5003 46.0598C43.7727 46.3277 44.1535 46.3346 44.4578 46.0773C44.6702 45.8978 44.6819 45.852 44.7078 45.105L44.735 44.321L45.801 43.5336L46.867 42.7462L46.8458 40.6584L46.8247 38.5705L43.9858 38.55L41.1469 38.5295V40.6617ZM18.8541 44.8349C17.4017 46.8639 17.324 46.9877 17.324 47.2731C17.324 47.5298 17.4447 47.6693 18.9342 49.1347C20.4584 50.6342 20.5603 50.7188 20.8436 50.7188C21.0974 50.7188 21.3651 50.5676 22.6073 49.7227C23.4127 49.1749 24.0711 48.7091 24.0703 48.6876C24.0696 48.6661 23.7405 48.4376 23.3392 48.1798C22.3361 47.5355 20.6296 45.8627 19.9272 44.8349L19.4031 44.0682L18.8541 44.8349ZM41.1721 45.4632C40.4394 46.4051 38.9474 47.7754 38.0811 48.3022L37.8064 48.4691L38.7819 49.1357C40.93 50.6037 41.2399 50.7969 41.4457 50.7969C41.6112 50.7969 41.9963 50.462 43.3065 49.1783C44.2152 48.2881 44.9586 47.534 44.9586 47.5026C44.9586 47.4713 44.8346 47.4965 44.6832 47.5588C44.0902 47.8025 43.1817 47.6416 42.6313 47.1953C42.1432 46.7994 41.9256 46.3479 41.8702 45.6157C41.8078 44.7924 41.7106 44.7712 41.1721 45.4632ZM27.4894 50.183C27.4899 50.2414 27.6315 51.045 27.8042 51.9688C28.0873 53.4835 28.1384 53.6657 28.3239 53.8242C28.5269 53.9977 28.5596 54 30.7945 54H33.0593L33.2787 53.7842C33.4594 53.6064 33.523 53.431 33.6402 52.7881C33.7184 52.359 33.8616 51.586 33.9585 51.0704C34.0555 50.5547 34.1264 50.1222 34.1162 50.1093C34.106 50.0963 33.6915 50.1659 33.1952 50.264C32.444 50.4123 32.0398 50.4421 30.7839 50.4416C29.3696 50.4411 28.7395 50.376 27.6671 50.1196C27.548 50.0911 27.4887 50.1122 27.4894 50.183Z" fill="#1964AA"/>
</svg>
