<svg width="67" height="67" viewBox="0 0 67 67" fill="none" xmlns="http://www.w3.org/2000/svg">
<circle cx="33.5" cy="33.5" r="33.5" fill="#F5F5F5"/>
<path fill-rule="evenodd" clip-rule="evenodd" d="M23.6119 18.1741C23.3338 18.2821 23.0475 18.4806 22.7912 18.743C22.4196 19.1234 22.319 19.3317 21.0024 22.4465C20.2352 24.2618 19.5383 25.8359 19.4538 25.9447C19.1633 26.3182 19.0613 26.3369 17.0792 26.3785L15.1979 26.418L14.817 26.6564C14.5399 26.8299 14.3767 27.0098 14.2178 27.3176C14.0088 27.7224 13.9995 27.7876 14 28.8576C14.0002 29.4722 14.0373 30.1093 14.0824 30.2735C14.2251 30.7935 14.5663 31.0858 15.7245 31.6803C16.8622 32.2644 17.1402 32.5008 17.2774 33.0008C17.3301 33.1927 17.3583 35.711 17.3585 40.2549C17.359 47.1217 17.3612 47.2217 17.5235 47.7078C18.0459 49.273 19.6955 50.252 21.2791 49.9368C21.9131 49.8106 22.4418 49.5349 22.923 49.0796C23.6643 48.3781 23.9152 47.7473 23.9913 46.3943C24.0429 45.4784 24.0578 45.4122 24.259 45.2086L24.472 44.9931H34H43.528L43.741 45.2086C43.9422 45.4122 43.9571 45.4784 44.0087 46.3943C44.0852 47.7542 44.3349 48.3773 45.0899 49.0918C45.5666 49.5429 46.1692 49.8381 46.8563 49.9572C48.3813 50.2214 49.9662 49.2367 50.4765 47.7078C50.6388 47.2217 50.641 47.1217 50.6415 40.2549C50.6417 35.711 50.6699 33.1927 50.7226 33.0008C50.8598 32.5008 51.1378 32.2644 52.2755 31.6803C53.4337 31.0858 53.7749 30.7935 53.9176 30.2735C53.9627 30.1093 53.9998 29.4722 54 28.8576C54.0005 27.7876 53.9912 27.7224 53.7822 27.3176C53.6233 27.0098 53.4601 26.8299 53.183 26.6564L52.8021 26.418L50.9208 26.3785C48.9387 26.3369 48.8367 26.3182 48.5462 25.9447C48.4617 25.8359 47.7648 24.2618 46.9976 22.4465C45.6814 19.3325 45.5803 19.1234 45.2092 18.7433C44.9405 18.4682 44.6731 18.2865 44.3659 18.1703L43.9162 18L33.9775 18.0041C24.0765 18.0082 24.0372 18.0089 23.6119 18.1741ZM42.4977 21.4422C42.6569 21.5094 42.8651 21.6386 42.9604 21.7292C43.1405 21.9004 46.1878 29.0016 46.1878 29.2503C46.1878 29.3267 46.1014 29.4766 45.996 29.5833L45.8043 29.7774H34H22.1957L22.004 29.5833C21.8986 29.4766 21.8122 29.3267 21.8122 29.2503C21.8122 28.9883 24.8602 21.8997 25.0507 21.7186C25.4729 21.3173 25.2529 21.327 34.022 21.3233C41.2394 21.3202 42.2426 21.3343 42.4977 21.4422ZM26.9005 34.9599C27.2614 35.1487 27.3592 35.4859 27.3592 36.5408C27.3592 37.6065 27.2597 37.915 26.8531 38.1103C26.4658 38.2962 21.5338 38.2962 21.1464 38.1103C20.7413 37.9158 20.6403 37.6054 20.6403 36.5551C20.6403 35.5059 20.7237 35.1949 21.0607 34.9871C21.2877 34.847 21.4882 34.8366 23.9841 34.8364C26.2642 34.8362 26.6991 34.8546 26.9005 34.9599ZM46.9009 34.9599C47.2619 35.1487 47.3597 35.4859 47.3597 36.5408C47.3597 37.6065 47.2601 37.915 46.8536 38.1103C46.4662 38.2962 41.5342 38.2962 41.1469 38.1103C40.7418 37.9158 40.6408 37.6054 40.6408 36.5551C40.6408 35.5059 40.7241 35.1949 41.0612 34.9871C41.2881 34.847 41.4886 34.8366 43.9846 34.8364C46.2647 34.8362 46.6996 34.8546 46.9009 34.9599Z" fill="#1964AA"/>
</svg>
