<svg width="67" height="67" viewBox="0 0 67 67" fill="none" xmlns="http://www.w3.org/2000/svg">
<circle cx="33.5" cy="33.5" r="33.5" fill="#F5F5F5"/>
<path fill-rule="evenodd" clip-rule="evenodd" d="M22.5318 22.6194C18.5204 25.1735 15.2375 27.2938 15.2365 27.3312C15.2355 27.3686 17.1757 29.8563 19.548 32.8594L23.8615 38.3195L35.3238 43.8513C43.8311 47.957 46.793 49.341 46.8126 49.2201C46.8271 49.1303 46.3768 46.8202 45.8118 44.0863L44.7846 39.1156L40.3637 36.485L35.9427 33.8545L32.9785 25.9395C31.3482 21.5863 29.9718 18.0136 29.9198 18.0001C29.8678 17.9867 26.5432 20.0654 22.5318 22.6194ZM31.7742 18.106C31.7742 18.1647 37.2526 32.7755 37.2805 32.7914C37.294 32.7989 39.1633 33.9089 41.4348 35.258L45.5647 37.7108L47.861 36.6255C49.1239 36.0284 50.2616 35.4833 50.389 35.414C50.6108 35.2933 50.386 34.9818 45.1381 28.1394C42.1228 24.2077 39.5533 20.8905 39.4284 20.7677C39.2869 20.6288 37.829 20.0769 35.5667 19.3058C32.0691 18.1136 31.7742 18.0204 31.7742 18.106ZM40.9136 18.3862C40.8763 18.5324 40.8138 18.9 40.7746 19.2032C40.7065 19.7305 40.7209 19.776 41.1071 20.2516C41.3292 20.5252 41.5231 20.7077 41.5381 20.6572C41.553 20.6068 41.4339 20.0154 41.2733 19.343C41.0527 18.419 40.9649 18.1854 40.9136 18.3862ZM45.6497 20.4439C44.797 21.4758 43.6784 23.2055 43.6784 23.4924C43.6784 23.7069 44.5145 24.6969 44.5611 24.5379C44.5845 24.458 44.7078 23.9383 44.8351 23.3828C44.9624 22.8273 45.2504 21.8969 45.4753 21.3153C45.7001 20.7335 45.8737 20.2483 45.8611 20.2369C45.8484 20.2255 45.7532 20.3186 45.6497 20.4439ZM14.3558 29.1914C14.1755 29.809 11.9604 40.2069 12.0005 40.2473C12.0463 40.2935 21.7833 38.4972 21.8497 38.4303C21.878 38.4016 14.8739 29.4877 14.5484 29.1383C14.4355 29.0172 14.4041 29.0258 14.3558 29.1914ZM48.8185 37.7822C47.5608 38.3749 46.5004 38.8915 46.462 38.9302C46.4237 38.9689 46.8566 41.2726 47.4242 44.0494L48.4563 49.0982L48.8327 48.785C49.0397 48.6128 49.8371 47.862 50.6046 47.1166L52 45.7613L51.5774 41.2963C51.3452 38.8405 51.1438 36.8027 51.1301 36.7679C51.1166 36.7332 50.0763 37.1897 48.8185 37.7822ZM17.7263 40.8561L12.5802 41.8278L14.2562 43.4756C15.178 44.3819 17.0063 46.1684 18.319 47.4455L20.7057 49.7676L29.6374 49.8604C34.5498 49.9115 39.8618 49.9702 41.4418 49.9909C43.0218 50.0115 44.2781 49.9958 44.2335 49.9559C44.1889 49.9161 40.6444 48.1952 36.3568 46.1318C32.0692 44.0685 27.9685 42.0947 27.2443 41.7455C26.52 41.3964 25.3416 40.8296 24.6257 40.4859C23.9097 40.1423 23.2223 39.8663 23.0981 39.8728C22.9739 39.8791 20.5566 40.3216 17.7263 40.8561Z" fill="#1964AA"/>
</svg>
