<svg width="67" height="67" viewBox="0 0 67 67" fill="none" xmlns="http://www.w3.org/2000/svg">
<circle cx="33.5" cy="33.5" r="33.5" fill="#F5F5F5"/>
<path fill-rule="evenodd" clip-rule="evenodd" d="M47.3748 14.0505C46.1362 14.3601 44.8687 15.9241 44.0117 18.2005C43.1951 20.3695 42.5612 23.4096 42.1723 27.0217L42.1232 27.4775L43.6722 27.4789C45.9119 27.4809 46.6853 27.7676 47.6481 28.9525C48.3836 29.8576 48.854 31.2661 48.854 32.5627C48.854 34.4209 47.9634 36.2258 46.6572 37.0146C45.8078 37.5277 45.2276 37.6442 43.5154 37.6462C42.1522 37.6478 42.0469 37.6603 42.0822 37.8158C42.1031 37.9081 42.1439 38.2859 42.1728 38.6553C42.2648 39.832 42.5887 42.066 42.8683 43.4527C43.5373 46.7704 44.473 49.1678 45.6236 50.5115C46.7112 51.7818 47.8182 52.1185 49.0486 51.5536C51.67 50.35 53.5054 44.4726 53.9452 35.8729C54.0454 33.9152 54.0032 30.2369 53.859 28.341C53.2723 20.6311 51.4788 15.3543 49.0712 14.2547C48.564 14.023 47.8354 13.9353 47.3748 14.0505ZM34.8616 20.3234L27.864 23.8012L27.8441 32.8153L27.8241 41.8294L34.8399 45.3937C38.6985 47.3541 41.8654 48.9459 41.8774 48.9313C41.8894 48.9166 41.7239 48.3625 41.5095 47.7C40.292 43.9349 39.7051 39.768 39.5805 34.0019C39.4497 27.9516 40.2404 21.6598 41.6333 17.666C41.7811 17.2424 41.8923 16.8845 41.8805 16.8707C41.8688 16.8569 38.7103 18.4107 34.8616 20.3234ZM19.6982 25.0905C19.3782 25.136 18.8575 25.2603 18.5412 25.3668C15.6802 26.3301 13.8244 29.5545 14.0132 33.2343C14.2011 36.8951 16.1261 39.6233 19.0682 40.3985C19.6427 40.5499 20.1196 40.5737 22.5865 40.574L25.4403 40.5743L25.4603 32.7786L25.4803 24.9829L22.8802 24.9953C21.4501 25.0021 20.0182 25.0449 19.6982 25.0905ZM41.9485 30.7157C41.9218 30.9136 41.8996 31.9098 41.8991 32.9293L41.8983 34.7831L43.5597 34.7523C45.0843 34.724 45.247 34.7045 45.5339 34.5149C46.5772 33.8259 46.8326 32.1581 46.0564 31.1017C45.5534 30.417 45.3642 30.3604 43.57 30.358L41.997 30.3559L41.9485 30.7157ZM20.0064 43.5301C20.0064 43.5463 20.4093 45.4024 20.9017 47.6548C21.8529 52.0055 21.9466 52.3095 22.5438 52.9851C23.7581 54.3587 25.571 54.3353 26.7151 52.9313C27.2578 52.2653 27.5306 51.5091 27.5734 50.5528C27.6059 49.8261 27.5711 49.6178 26.921 46.6429L26.2342 43.5007H23.1203C21.4076 43.5007 20.0064 43.5139 20.0064 43.5301Z" fill="#1964AA"/>
</svg>
