<svg width="67" height="67" viewBox="0 0 67 67" fill="none" xmlns="http://www.w3.org/2000/svg">
<circle cx="33.5" cy="33.5" r="33.5" fill="#F5F5F5"/>
<path fill-rule="evenodd" clip-rule="evenodd" d="M31.5828 18.0595L23.8887 22.1145L20.8 22.1477C17.4268 22.184 17.3885 22.1888 16.4063 22.6943C15.8045 23.004 14.9964 23.7923 14.6221 24.4348C14.4498 24.7306 14.2457 25.238 14.1574 25.5898C14.0031 26.205 14 26.4502 14 38.0222C14 46.0509 14.0267 49.9783 14.0835 50.2998C14.1295 50.5598 14.31 51.0774 14.4848 51.4498C15.0448 52.6435 16.1164 53.5361 17.3985 53.8766C17.808 53.9853 19.5704 53.9995 32.6355 53.9995C48.9039 53.9995 47.7797 54.0337 48.8487 53.5067C49.5392 53.1663 50.4538 52.2336 50.7876 51.5295C51.2506 50.5529 51.2709 50.3637 51.2709 47.0291V43.9964L51.7862 43.8968C52.0695 43.8419 52.4076 43.7411 52.5374 43.6726C52.8887 43.4874 53.4452 42.9372 53.6522 42.5704C53.9928 41.9669 54.0191 41.5992 53.9921 37.8249L53.9666 34.2792L53.7572 33.8235C53.3778 32.9981 52.5913 32.3933 51.7338 32.2677L51.31 32.2055L51.2664 28.9796C51.2191 25.483 51.2221 25.5085 50.7462 24.5794C50.229 23.5696 49.3077 22.7859 48.1846 22.4004C47.6095 22.203 47.4257 22.1819 45.8861 22.1371L44.2128 22.0885L42.3154 18.2639C41.0144 15.6416 40.3426 14.3705 40.1783 14.2202C39.6791 13.7636 40.0386 13.6031 31.5828 18.0595ZM40.5663 19.2599L41.9731 22.1283L35.1165 22.1248C28.3813 22.1213 28.2647 22.1187 28.5333 21.9728C29.1003 21.6651 39.1216 16.3921 39.1401 16.3918C39.1507 16.3916 39.7925 17.6823 40.5663 19.2599ZM51.5525 34.3222C51.9773 34.4869 51.969 34.4125 51.9717 38.0987C51.9742 41.5031 51.9733 41.5205 51.8043 41.7041L51.6343 41.8885H45.667H39.6997L39.5079 41.6929L39.3161 41.4973V38.0815V34.6656L39.4919 34.5025C39.5886 34.4128 39.7205 34.3197 39.7849 34.2956C40.0136 34.2104 51.33 34.2359 51.5525 34.3222ZM43.2176 35.5949C42.1889 35.7718 41.3931 36.573 41.1899 37.6365C40.8975 39.1661 42.076 40.6136 43.6136 40.6136C45.368 40.6136 46.5856 38.8042 45.9281 37.1742C45.7026 36.615 45.4731 36.3208 45.02 36.01C44.4705 35.633 43.84 35.4878 43.2176 35.5949Z" fill="#1964AA"/>
</svg>
