<svg width="67" height="67" viewBox="0 0 67 67" fill="none" xmlns="http://www.w3.org/2000/svg">
<circle cx="33.5" cy="33.5" r="33.5" fill="#F5F5F5"/>
<path fill-rule="evenodd" clip-rule="evenodd" d="M32.4752 14.0228C26.0497 14.6704 20.7654 17.7861 17.3369 22.9485C15.8758 25.1486 14.9088 27.5121 14.3705 30.1981C12.9742 37.1663 15.5949 44.6414 21.0445 49.2347C26.3633 53.7178 33.5673 55.1547 40.1514 53.0456C44.9503 51.5083 49.0739 48.121 51.518 43.7085C52.6815 41.6078 53.4861 39.2095 53.8518 36.7513C54.0494 35.4233 54.0494 32.5639 53.8518 31.236C52.9933 25.4658 49.8752 20.5092 45.1158 17.3494C42.5622 15.654 40.0106 14.6719 36.8804 14.1795C36.0979 14.0565 33.1734 13.9524 32.4752 14.0228ZM37.1277 24.2032C38.1762 24.5782 38.7147 24.9251 39.5757 25.7799C40.2181 26.4178 40.3948 26.6555 40.7229 27.3233C41.267 28.4307 41.3987 28.9911 41.3987 30.1981C41.3987 31.4092 41.2647 31.9784 40.726 33.0559C39.9082 34.6913 38.3827 35.899 36.5926 36.3281C36.0319 36.4625 35.6073 36.4951 34.4151 36.4956L32.9341 36.4962V37.2849V38.0736L36.0987 38.0982C39.1591 38.122 39.2711 38.1286 39.4987 38.2974C39.9527 38.6339 40.1279 38.9899 40.092 39.503C40.0548 40.0362 39.8779 40.3239 39.4308 40.578C39.1392 40.7439 39.0077 40.7506 36.0368 40.7506H32.9461L32.9193 41.9961C32.8953 43.1046 32.8732 43.2674 32.7179 43.4768C32.2484 44.1093 31.4304 44.2865 30.8378 43.8839C30.3459 43.5497 30.2642 43.271 30.2642 41.9267V40.7506H28.8998C27.6223 40.7506 27.5179 40.7386 27.2596 40.5629C26.8462 40.2816 26.657 39.9751 26.6196 39.5263C26.574 38.9795 26.8352 38.5241 27.3411 38.2688C27.6784 38.0986 27.8316 38.0811 28.9886 38.0811H30.2642V37.2887V36.4962H28.8998C27.6223 36.4962 27.5179 36.4843 27.2596 36.3085C26.8462 36.0272 26.657 35.7207 26.6196 35.2719C26.574 34.7251 26.8352 34.2697 27.3411 34.0145C27.6784 33.8442 27.8316 33.8268 28.9886 33.8268H30.2642L30.2655 29.343L30.2669 24.8592L30.4532 24.5342C30.8157 23.9023 30.8814 23.8903 33.8102 23.9175L36.3967 23.9416L37.1277 24.2032ZM32.9341 30.1916V33.8268H34.3021C35.8446 33.8268 36.4213 33.7066 37.13 33.2373C39.4697 31.6878 39.2341 28.1744 36.7067 26.9246L36.0725 26.611L34.5033 26.5837L32.9341 26.5563V30.1916Z" fill="#1964AA"/>
</svg>
