<svg width="50" height="50" viewBox="0 0 50 50" fill="none" xmlns="http://www.w3.org/2000/svg">
<path d="M0 6C0 2.68629 2.68629 0 6 0H44C47.3137 0 50 2.68629 50 6V44C50 47.3137 47.3137 50 44 50H6C2.68629 50 0 47.3137 0 44V6Z" fill="white"/>
<path fill-rule="evenodd" clip-rule="evenodd" d="M9.69629 10.1057C9.40312 10.244 9.2187 10.4395 9.09373 10.7447C9.01284 10.9421 9 11.4593 9 14.5271V18.0807H24.5H40V14.5412V11.0017L39.8466 10.6876C39.7508 10.4915 39.5994 10.3073 39.4431 10.1968L39.193 10.02L24.5658 10.0057C10.4469 9.99189 9.93006 9.99541 9.69629 10.1057ZM10.5411 19.7028C10.525 19.7457 10.5191 24.1304 10.5279 29.4467L10.5439 39.1127L10.6814 39.3752C10.7569 39.5195 10.9321 39.7141 11.0705 39.8076L11.3222 39.9775L24.3442 39.9956C33.4641 40.0083 37.4334 39.9939 37.5905 39.9476C37.8926 39.8586 38.1771 39.6035 38.312 39.3006C38.4183 39.0618 38.4232 38.6278 38.4244 29.3379L38.4258 19.6249H24.4981C13.3458 19.6249 10.5646 19.6404 10.5411 19.7028ZM29.6232 23.5727C29.9314 23.7154 30.1649 24.0185 30.247 24.3823C30.3281 24.7413 30.3281 26.8622 30.247 27.2212C30.1649 27.585 29.9314 27.888 29.6232 28.0307C29.3865 28.1404 29.1289 28.1463 24.4737 28.1476C19.6025 28.1489 19.5718 28.1481 19.3081 28.0179C19.1484 27.9391 18.9781 27.7872 18.8803 27.6365L18.7178 27.3862L18.6985 25.93C18.6868 25.0389 18.7038 24.389 18.7425 24.2554C18.8163 24.0001 19.1248 23.6563 19.3838 23.5406C19.5289 23.4757 20.5524 23.4592 24.4697 23.4583C29.1316 23.4573 29.3863 23.4629 29.6232 23.5727Z" fill="#1964AA"/>
</svg>
