<svg width="50" height="50" viewBox="0 0 50 50" fill="none" xmlns="http://www.w3.org/2000/svg">
<path d="M0 6C0 2.68629 2.68629 0 6 0H44C47.3137 0 50 2.68629 50 6V44C50 47.3137 47.3137 50 44 50H6C2.68629 50 0 47.3137 0 44V6Z" fill="white"/>
<path fill-rule="evenodd" clip-rule="evenodd" d="M23.4031 10.0526C20.306 10.4125 17.568 12.2933 16.1646 15.0246C15.7813 15.7707 15.5769 16.3009 15.3888 17.0376C15.1137 18.1153 15.1016 18.4153 15.1004 24.1894L15.0992 29.6257H25.0047H34.9101L34.9089 24.1894C34.9077 18.4153 34.8956 18.1153 34.6205 17.0376C34.4324 16.3009 34.228 15.7707 33.8446 15.0245C32.433 12.277 29.6735 10.3897 26.5748 10.0526C25.9303 9.98248 24.0064 9.98248 23.4031 10.0526ZM29.2289 18.2966C29.4368 18.5195 29.4592 18.5736 29.4589 18.8535C29.4586 19.2542 29.303 19.5147 28.9744 19.6638C28.7383 19.771 28.5496 19.7763 25.0047 19.7763C21.4597 19.7763 21.271 19.771 21.0349 19.6638C20.7096 19.5161 20.5507 19.2535 20.5504 18.8637C20.5502 18.5292 20.6729 18.3219 20.9845 18.1306C21.1582 18.0241 21.3259 18.0202 25.0821 18.0347L28.9987 18.0498L29.2289 18.2966ZM28.9862 21.623C29.2986 21.7846 29.4592 22.0407 29.4589 22.377C29.4586 22.7705 29.3008 23.0324 28.9744 23.1805C28.7383 23.2877 28.5496 23.293 25.0047 23.293C21.4597 23.293 21.271 23.2877 21.0349 23.1805C20.7096 23.0328 20.5507 22.7703 20.5504 22.3804C20.5502 22.0456 20.6734 21.8379 20.9845 21.6481C21.157 21.5429 21.3479 21.5376 24.9929 21.5375C28.2389 21.5373 28.8454 21.5502 28.9862 21.623ZM28.9785 25.1363C29.2926 25.2997 29.4209 25.4993 29.444 25.8607C29.4712 26.2842 29.3299 26.5358 28.9744 26.6972C28.7383 26.8044 28.5496 26.8097 25.0047 26.8097C21.4597 26.8097 21.271 26.8044 21.0349 26.6972C20.7096 26.5496 20.5507 26.287 20.5504 25.8971C20.5502 25.5624 20.6734 25.3546 20.9845 25.1648C21.157 25.0596 21.3479 25.0544 24.9929 25.0542C28.1661 25.054 28.8473 25.068 28.9785 25.1363ZM12.3455 31.4925C11.919 31.7213 11.9069 31.767 11.8871 33.2344L11.8694 34.5491H25.0047H38.1399L38.1222 33.2344C38.1024 31.767 38.0903 31.7213 37.6638 31.4925C37.4688 31.3879 37.0164 31.384 25.0047 31.384C12.9929 31.384 12.5405 31.3879 12.3455 31.4925ZM10.4043 36.4405C10.0212 36.6964 10.0002 36.8032 10.0001 38.4907L10 40H25.0047H40.0093L40.0092 38.4907C40.0091 36.8032 39.9881 36.6964 39.605 36.4405L39.4059 36.3074H25.0047H10.6035L10.4043 36.4405Z" fill="#1964AA"/>
</svg>
