<svg width="50" height="50" viewBox="0 0 50 50" fill="none" xmlns="http://www.w3.org/2000/svg">
<path d="M0 6C0 2.68629 2.68629 0 6 0H44C47.3137 0 50 2.68629 50 6V44C50 47.3137 47.3137 50 44 50H6C2.68629 50 0 47.3137 0 44V6Z" fill="white"/>
<path fill-rule="evenodd" clip-rule="evenodd" d="M12.097 14.0282L10 18.0551L10.0908 18.4573C10.4035 19.8428 11.5739 20.7812 12.989 20.7812C13.8774 20.7812 14.5807 20.4838 15.1621 19.862C15.6859 19.3018 15.892 18.8451 15.9849 18.0383C16.026 17.6822 17.6821 11.1839 18.0074 10.1025C18.0363 10.0063 17.9196 10.0001 16.1161 10.0007L14.1941 10.0013L12.097 14.0282ZM20.0802 10.0192C20.0802 10.0297 19.619 11.7892 19.0553 13.9291C18.4915 16.0691 18.0303 17.9277 18.0303 18.0595C18.0303 18.6591 18.4044 19.4438 18.9318 19.9504C19.533 20.5279 20.1701 20.7812 21.0218 20.7812C22.1592 20.7812 23.1084 20.2124 23.6419 19.211C24.0017 18.5356 24.0025 18.5246 24.0034 14.0576L24.0043 10H22.0423C20.9631 10 20.0802 10.0086 20.0802 10.0192ZM25.9965 14.0576C25.9975 18.5246 25.9982 18.5356 26.3581 19.211C27.1357 20.6706 28.9071 21.2092 30.4158 20.4449C31.2384 20.0282 31.9696 18.9055 31.9696 18.0593C31.9696 17.9275 31.5084 16.0697 30.9447 13.9308C30.3809 11.7919 29.9197 10.0325 29.9197 10.021C29.9197 10.0094 29.0368 10 27.9577 10H25.9956L25.9965 14.0576ZM31.9926 10.1025C32.3251 11.2079 33.9735 17.6807 34.0146 18.0422C34.1089 18.8727 34.3781 19.4335 34.939 19.9688C35.5267 20.5294 36.1689 20.7812 37.011 20.7812C37.6459 20.7812 38.1502 20.6347 38.6388 20.3083C39.2874 19.875 39.737 19.2198 39.9092 18.4572L40 18.0549L37.9029 14.0283L35.8059 10.0017L33.8838 10.0009C32.0803 10.0001 31.9636 10.0063 31.9926 10.1025ZM16.7347 21.1258C16.0393 21.9195 14.9687 22.5241 13.9123 22.7194C13.7129 22.7563 13.2402 22.7849 12.8617 22.7829L12.1735 22.7792V30.9814C12.1735 37.8157 12.1869 39.2149 12.2541 39.372C12.3516 39.6 12.6118 39.8529 12.8362 39.9377C12.9493 39.9804 15.1962 40 19.9962 40H26.9913V34.3428C26.9913 29.3222 27.0016 28.6656 27.083 28.5081C27.2583 28.169 27.3048 28.1641 30.3132 28.1643C32.9484 28.1645 33.0605 28.169 33.2449 28.2815C33.3504 28.3458 33.4625 28.4661 33.4939 28.5488C33.5295 28.6426 33.551 30.8206 33.551 34.3495V40H35.2806C37.1608 40 37.2483 39.9873 37.5445 39.6703C37.6311 39.5777 37.7299 39.4277 37.7641 39.337C37.8071 39.2233 37.8265 36.6248 37.8265 30.9771V22.7822L37.0504 22.7812C36.1567 22.7801 35.6089 22.6659 34.9114 22.3353C34.2907 22.0411 33.903 21.7658 33.414 21.2717L32.98 20.8333L32.7237 21.1259C32.1128 21.8233 31.132 22.4151 30.1833 22.6588C29.5232 22.8283 28.5486 22.8289 27.8405 22.6602C26.8825 22.4319 25.9434 21.8754 25.3026 21.1561L25.0015 20.8182L24.6773 21.1766C23.2399 22.7656 20.8467 23.2475 18.9222 22.3353C18.2983 22.0396 17.8886 21.7487 17.4135 21.264L16.9911 20.8331L16.7347 21.1258ZM21.1979 28.3847L21.3687 28.5761L21.3674 30.6113C21.3663 32.4511 21.3564 32.6585 21.2649 32.7715C21.065 33.0184 20.9844 33.0273 18.9684 33.0273C16.9059 33.0273 16.7726 33.0109 16.6264 32.7376C16.5884 32.6666 16.5661 31.8791 16.5661 30.6075C16.5661 28.6353 16.5689 28.5865 16.6913 28.4308C16.7602 28.3432 16.8722 28.2485 16.9402 28.2203C17.0083 28.1922 17.9556 28.1746 19.0455 28.1813L21.027 28.1934L21.1979 28.3847Z" fill="#1964AA"/>
</svg>
