<svg width="12" height="20" viewBox="0 0 12 20" fill="none" xmlns="http://www.w3.org/2000/svg">
<path fill-rule="evenodd" clip-rule="evenodd" d="M0.0344036 1.06911C0.134772 0.664299 0.457697 0.29709 0.874815 0.113465C1.08461 0.021125 1.17452 0.00488724 1.47176 0.0057089C2.13008 0.00750873 1.68546 -0.368074 6.99605 4.67206C10.1989 7.71186 11.7504 9.21071 11.8196 9.33208C11.9813 9.61548 12.0381 9.95017 11.9745 10.2446C11.9454 10.3791 11.8757 10.5697 11.8196 10.668C11.7504 10.7894 10.1989 12.2883 6.99606 15.3281C1.68501 20.3686 2.12979 19.9929 1.47176 19.9941C1.17374 19.9946 1.08375 19.9781 0.865182 19.8832C0.109002 19.5548 -0.210877 18.6795 0.16322 17.9625C0.216368 17.8605 1.67554 16.4447 4.34683 13.903L8.44885 10.0001L4.34683 6.09712C1.66508 3.54551 0.216697 2.13998 0.163508 2.03767C0.00871459 1.73983 -0.0404405 1.3709 0.0344036 1.06911Z" fill="#1964AA"/>
</svg>
