<svg width="12" height="20" viewBox="0 0 12 20" fill="none" xmlns="http://www.w3.org/2000/svg">
<path fill-rule="evenodd" clip-rule="evenodd" d="M11.9656 1.06911C11.8652 0.664299 11.5423 0.29709 11.1252 0.113465C10.9154 0.021125 10.8255 0.00488724 10.5282 0.0057089C9.86992 0.00750873 10.3145 -0.368074 5.00395 4.67206C1.80109 7.71186 0.249615 9.21071 0.18037 9.33208C0.018702 9.61548 -0.0381103 9.95017 0.0254941 10.2446C0.0545592 10.3791 0.124258 10.5697 0.18037 10.668C0.249615 10.7894 1.80109 12.2883 5.00394 15.3281C10.315 20.3686 9.87021 19.9929 10.5282 19.9941C10.8263 19.9946 10.9163 19.9781 11.1348 19.8832C11.891 19.5548 12.2109 18.6795 11.8368 17.9625C11.7836 17.8605 10.3245 16.4447 7.65317 13.903L3.55115 10.0001L7.65317 6.09712C10.3349 3.54551 11.7833 2.13998 11.8365 2.03767C11.9913 1.73983 12.0404 1.3709 11.9656 1.06911Z" fill="#1964AA"/>
</svg>
