<svg width="10" height="8" viewBox="0 0 10 8" fill="none" xmlns="http://www.w3.org/2000/svg">
<path fill-rule="evenodd" clip-rule="evenodd" d="M8.95508 0.0101322C8.93359 0.0200705 7.73395 1.31974 6.28918 2.89829L3.66232 5.76837L2.36305 4.35024C1.13734 3.01237 1.05988 2.93208 0.995215 2.93208C0.931719 2.93208 0.892402 2.96959 0.46332 3.43962C0.069082 3.87147 0 3.9565 0 4.00984C0 4.0645 0.226582 4.32016 1.77246 6.00962C2.7473 7.07503 3.57 7.96125 3.60064 7.979C3.64447 8.00438 3.66756 8.00619 3.70891 7.98749C3.73779 7.97441 5.16512 6.43079 6.88072 4.55721C9.61398 1.57225 10 1.14294 10 1.08791C10 1.03436 9.93174 0.950716 9.53613 0.519591C9.28102 0.241551 9.05469 0.00910861 9.0332 0.00307308C9.01172 -0.00298378 8.97656 0.0001938 8.95508 0.0101322Z" fill="black"/>
</svg>
