<svg width="63" height="60" viewBox="0 0 63 60" fill="none" xmlns="http://www.w3.org/2000/svg">
<path d="M62.1552 30.9715C62.1122 29.2286 61.9834 27.4572 61.5968 25.7572C60.9668 23.0143 59.4777 20.7572 56.6427 19.8572C53.5356 18.8715 50.7579 19.8 48.2522 21.7286C48.1234 21.8286 48.0088 22.0286 48.0088 22.1715C47.9945 24.0857 47.9945 25.9857 47.9945 27.8857C48.9109 27.7 49.727 27.4572 50.5575 27.3857C51.6743 27.2857 52.7195 27.5143 53.3638 28.5715C54.0081 29.6143 54.409 30.7715 54.4234 31.9857C54.4663 36.6572 54.4663 41.3286 54.4234 45.9857C54.409 48.0429 53.3209 49.4143 51.4022 50.0715C51.2447 50.1286 51.0156 50.3572 51.0156 50.5C51.0013 52.8 51.03 55.1 51.0443 57.4C51.0443 57.7857 51.2018 57.9572 51.6313 57.9572C55.712 58 59.807 55.1857 61.2245 51.3143C62.1981 48.6572 62.3127 45.8857 62.2984 43.1C62.2697 39.0857 62.2697 35.0286 62.1552 30.9715ZM54.0797 10.1C56.07 9.88574 58.0745 9.65717 60.0647 9.44289C60.394 9.41431 60.5659 9.3286 60.5659 8.95717C60.5515 6.64288 60.5659 4.31431 60.5659 1.88574C57.3156 2.25717 54.18 2.60003 51.0586 2.97146C47.479 3.38574 43.9711 3.8286 40.3915 4.21431C40.277 5.68574 40.1625 7.2286 40.0622 8.7286C40.005 9.67146 39.962 10.6143 39.919 11.6143C41.9093 11.4 43.8136 11.2 45.7179 11C48.51 10.7 51.2877 10.4 54.0797 10.1ZM46.1331 33.8572C46.2334 29.8715 46.3193 25.8857 46.4338 21.9143C46.4911 19.6429 46.5913 17.3715 46.6486 15.0857C46.6629 14.4143 46.6486 13.7429 46.6486 13.0429C46.3193 13.0429 46.0902 13.0286 45.8754 13.0429C44.1 13.1286 42.3245 13.2572 40.5347 13.3C39.9047 13.3143 39.7615 13.5572 39.7472 14.1C39.7186 15.3572 39.6613 16.6 39.6184 17.8572C39.4322 22.7857 39.2461 27.7286 39.0743 32.6572C39.0456 33.3143 39.0743 33.9715 39.0743 34.7429C41.3365 34.6715 43.4986 34.6 45.675 34.5286C46.1475 34.5143 46.1331 34.2 46.1331 33.8572ZM48.9109 50C47.207 49.8143 46.3193 48.1715 46.262 46.5715C46.1904 44.6429 46.1475 42.7 46.1188 40.7715C46.1188 40.2857 45.9756 40.0857 45.4459 40.1C43.5559 40.1572 41.6515 40.2 39.7472 40.2143C39.2318 40.2143 39.1459 40.4286 39.1602 40.8715C39.1888 42.1 39.1745 43.3286 39.2175 44.5572C39.2747 46.4429 39.2175 48.3572 39.5038 50.2143C39.8904 52.5857 41.0502 54.6857 43.069 56.0715C44.8588 57.3 46.9636 57.7857 49.2688 58.0572C49.2688 55.4286 49.2688 52.9143 49.2545 50.3857C49.2688 50.2572 49.054 50.0143 48.9109 50ZM1.63223 29.4143H7.80336C7.80336 27.5857 7.77473 25.8429 7.80336 24.1C7.87495 20.5429 8.87722 19.4429 12.3852 19.0143C12.4568 19 12.514 18.9286 12.6572 18.8429V13.0286C8.47632 12.5572 3.88018 15.4857 2.37677 19.5572C1.15973 22.7715 1.80404 26.1 1.63223 29.4143ZM11.612 44.5572C8.86291 44.4429 8.04677 43.5715 7.9895 40.8143C7.94654 38.7143 7.9895 36.6143 7.94654 34.5143C7.93223 33.6286 7.832 32.7286 7.76041 31.8286H1.66086C1.66086 35.0857 1.50336 38.2143 1.6895 41.3286C2.09041 47.7143 5.51245 51.3 11.5261 52.0286C12.3709 52.1286 12.6859 51.9 12.6572 51.0572C12.6143 49.2429 12.6286 47.4143 12.6572 45.6C12.6715 44.8143 12.3852 44.5857 11.612 44.5572ZM26.9468 21.9286C26.9611 23.2286 26.9611 24.5429 26.9754 25.8429C26.9754 26.7286 26.9754 27.6143 26.9754 28.4857H33.9913C33.9913 25.4715 34.1202 22.6143 33.9484 19.7857C33.8052 17.2572 32.5738 15.1857 30.3831 13.7857C28.1352 12.3429 25.6295 12.1286 23.0522 12.3429C22.8088 12.3572 22.4222 12.7429 22.4079 12.9715C22.3506 14.8143 22.3793 16.6715 22.3793 18.5715C22.9234 18.6 23.31 18.6286 23.6965 18.6429C26.0447 18.7286 26.9038 19.6 26.9468 21.9286ZM13.9315 58.1857H20.8902V6.10003C18.499 6.35717 16.2225 6.60003 13.9315 6.84289V58.1857ZM34.0486 30.9715C32.0011 30.9715 30.1111 31 28.2211 30.9572C27.3334 30.9286 27.047 31.2429 27.047 32.1286C27.0756 34.6286 26.9897 37.1143 27.004 39.6143C27.0184 42.8 25.787 44.5286 22.7372 44.8286C22.637 44.8429 22.5368 44.9286 22.4509 44.9715V51.4857C28.4502 51.8143 32.2875 48.6286 33.5045 44.0143C34.6643 39.7286 33.7909 35.3715 34.0486 30.9715Z" fill="url(#paint0_linear_104_421)"/>
<defs>
<linearGradient id="paint0_linear_104_421" x1="5.36068" y1="30.034" x2="62.7376" y2="30.034" gradientUnits="userSpaceOnUse">
<stop offset="0.0344" stop-color="#273580"/>
<stop offset="0.2149" stop-color="#46317C"/>
<stop offset="0.6071" stop-color="#942673"/>
<stop offset="0.8615" stop-color="#CA1E6D"/>
</linearGradient>
</defs>
</svg>
