<svg width="78" height="78" viewBox="0 0 78 78" fill="none" xmlns="http://www.w3.org/2000/svg">
<path fill-rule="evenodd" clip-rule="evenodd" d="M37.5367 19.0818C33.7625 19.5112 30.2854 21.5886 28.1926 24.6645C26.6988 26.8598 25.8745 29.6698 26.0151 32.0878C26.1945 35.1747 28.8918 40.4177 33.653 46.9346C35.4941 49.4546 38.8718 53.7719 39.0023 53.7719C39.032 53.7719 39.6127 53.0775 40.2926 52.2286C48.1052 42.4753 52.0121 35.6183 52.0078 31.6674C52.0051 29.2518 51.224 26.7806 49.7942 24.6645C47.1412 20.7378 42.3121 18.5384 37.5367 19.0818ZM40.9945 24.0706C41.9515 24.3123 43.2953 24.9773 44.0841 25.5993C45.5636 26.7662 46.5751 28.4545 46.9442 30.373C47.1233 31.3044 47.0712 32.7606 46.8254 33.6897C46.2224 35.9697 44.6104 37.8692 42.4193 38.8817C41.185 39.4521 40.5427 39.584 38.9993 39.584C37.4027 39.584 36.7803 39.4483 35.4477 38.8098C33.7807 38.0111 32.5897 36.8453 31.7736 35.2135C31.1199 33.9064 30.9813 33.2984 30.9809 31.7362C30.9804 30.2274 31.1144 29.6047 31.701 28.3877C32.8597 25.984 34.9431 24.4498 37.8021 23.8948C37.9118 23.8735 38.5224 23.8658 39.1589 23.8777C40.0349 23.8939 40.481 23.9408 40.9945 24.0706ZM30.0605 48.267C28.0025 48.7297 25.9045 49.5425 24.8329 50.2923C24.1308 50.7835 23.5437 51.4308 23.2541 52.0326C23.0346 52.4888 23 52.6459 23 53.1859C23 53.7264 23.0346 53.8828 23.2552 54.3414C23.8633 55.6052 25.3608 56.6471 27.7191 57.4473C34.2387 59.6593 45.4611 59.4831 51.2901 57.0771C52.9905 56.3753 54.1805 55.4452 54.7032 54.4096C54.9735 53.8741 55.0012 53.7604 55 53.1899C54.9987 52.6471 54.9637 52.4883 54.7444 52.0326C53.9753 50.4341 51.8059 49.206 48.2246 48.3415C47.6005 48.1909 47.0146 48.0676 46.9227 48.0676C46.7996 48.0676 46.5342 48.3651 45.9144 49.198L45.0733 50.3282L45.3683 50.3747C48.491 50.8668 51.1918 51.8054 52.1309 52.725C52.4753 53.0621 52.4801 53.2789 52.1506 53.6088C50.8652 54.8961 47.2969 55.9121 42.6706 56.3082C40.8355 56.4654 37.1695 56.4657 35.328 56.3089C30.7288 55.9174 26.9929 54.8467 25.8105 53.5813C25.5049 53.2542 25.5313 53.0526 25.9283 52.679C26.7827 51.8753 29.2161 50.9807 31.7764 50.5292C32.1715 50.4596 32.5919 50.3783 32.7107 50.3487L32.9266 50.2947L32.1121 49.185C31.4348 48.2624 31.2639 48.0756 31.098 48.0769C30.9883 48.0778 30.5214 48.1634 30.0605 48.267Z" fill="white"/>
<circle cx="39" cy="39" r="37.5" stroke="white" stroke-width="3"/>
</svg>
