<svg width="95" height="57" viewBox="0 0 95 57" fill="none" xmlns="http://www.w3.org/2000/svg">
<path fill-rule="evenodd" clip-rule="evenodd" d="M43.0667 0.103309C34.0209 0.721498 25.4613 3.97968 18.2828 9.53702C16.5765 10.858 15.4876 11.8258 13.8112 13.5115C10.0261 17.3173 7.167 21.358 4.83086 26.2031C2.0211 32.0301 0.510593 37.7922 0.0508813 44.4355C-0.0721316 46.2137 0.0108844 46.7801 0.488529 47.4208C1.44765 48.7077 3.29335 48.8112 4.4051 47.6404C5.01583 46.9972 5.06479 46.7327 5.12564 43.7483C5.22297 38.9771 5.77617 35.3414 7.03038 31.2307C10.0917 21.197 16.8862 12.2898 25.6411 6.8332C31.821 2.98145 38.376 0.818869 45.8951 0.151123L47.4493 0.0131207L45.8877 0.0151727C45.0288 0.0163014 43.7594 0.0560091 43.0667 0.103309ZM48.5575 0.0975636C54.8928 0.607505 60.0501 1.97839 65.282 4.54318C69.7472 6.73203 73.603 9.52747 77.1759 13.1662C81.5158 17.5861 84.7269 22.5711 86.9286 28.3064C88.8462 33.3019 89.7533 38.0891 89.874 43.8509C89.9343 46.7235 89.9869 47.0009 90.5942 47.6404C91.7059 48.8112 93.5516 48.7077 94.5107 47.4208C94.9863 46.7829 95.0724 46.2071 94.95 44.4851C93.8965 29.6669 86.8774 16.8196 75.2464 8.4211C72.7716 6.63405 68.9032 4.50286 65.9171 3.28126C60.6262 1.11693 54.5376 -0.057163 48.9118 0.00214204L47.55 0.0165066L48.5575 0.0975636ZM48.2847 11.7616L48.2552 12.5568L47.3737 12.5864L46.4922 12.6161V13.4329V14.2497L47.3737 14.2703L48.2552 14.291L47.4658 14.3262C46.7882 14.3563 46.6935 14.3825 46.798 14.5107C46.8833 14.6152 47.1296 14.6601 47.6177 14.6601H48.3157L48.2855 15.2501L48.2552 15.8401L46.3158 15.868L44.3764 15.8958V16.7061C44.3764 17.5153 44.3769 17.5165 44.7158 17.7298C45.0228 17.9231 45.2097 17.9435 46.6803 17.9435H48.3056V19.3286C48.3056 20.0904 48.2777 20.7138 48.2435 20.7138C48.1867 20.7138 47.6501 20.334 46.8196 19.7058L46.4922 19.4582V20.5273V21.5965L47.3989 22.2472L48.3056 22.8979V25.2943V27.6908H47.8019H47.2981V28.6656V29.6403H46.9057C46.2658 29.6403 45.2667 30.009 44.797 30.4183C44.1622 30.9717 43.889 31.6138 43.7204 32.9493L43.6588 33.4366H43.1613H42.6637V38.3103V43.184H41.6059H40.548V45.0309V46.8777H48.5071H56.4662V45.0309V43.184H56.0128H55.5594V38.3103V33.4366H55.1659C54.822 33.4366 54.7789 33.4108 54.825 33.2314C54.861 33.0915 54.8281 33.0262 54.7218 33.0262C54.6361 33.0262 54.5463 33.1301 54.5223 33.2571C54.4983 33.3841 54.4725 33.2744 54.4649 33.0134C54.4574 32.7524 54.4229 32.3946 54.3882 32.2182C54.3362 31.9528 54.3569 31.8976 54.5091 31.8976C54.6521 31.8976 54.6661 31.8702 54.5721 31.7745C54.5056 31.7067 54.4512 31.5882 54.4512 31.5111C54.4512 31.2567 53.7662 30.4263 53.5445 30.4119C53.5168 30.4101 53.3354 30.3094 53.1415 30.1881C52.6892 29.9054 51.803 29.6403 51.3097 29.6403H50.925V28.6656C50.925 27.6988 50.923 27.6908 50.6776 27.6908H50.4301L50.4006 25.8525C50.381 24.6385 50.4052 24.0407 50.4717 24.0924C50.9574 24.4701 51.7331 25.0231 51.7771 25.0231C51.8072 25.0231 51.8318 24.5658 51.8318 24.0068V22.9904L50.925 22.3152L50.0183 21.64V19.6379C50.0183 18.5366 50.055 17.6356 50.0998 17.6356C50.1447 17.6356 50.2693 17.7035 50.3769 17.7863C50.5309 17.905 50.9433 17.9376 52.3211 17.9402C53.875 17.943 54.0629 17.9254 54.0086 17.7811C53.975 17.6919 53.9475 17.2312 53.9475 16.7574V15.8958L52.0081 15.868L50.0687 15.8401V15.0705V14.301L50.9502 14.2714L51.8318 14.2417V13.4289V12.6161L50.9502 12.5864L50.0687 12.5568L50.0393 11.7616L50.0099 10.9664H49.162H48.3141L48.2847 11.7616ZM50.1191 11.8189C50.1191 12.3608 50.1509 12.5054 50.2702 12.5054C50.4736 12.5054 50.4712 11.6065 50.267 11.3316C50.1322 11.1501 50.1191 11.1932 50.1191 11.8189ZM25.9183 12.6337L25.8892 13.5828L24.8062 13.6119L23.7232 13.6411V14.5575V15.474L24.8062 15.5031L25.8892 15.5323V20.252V24.9718L25.5114 24.9418L25.1336 24.9116V25.7361V26.5605L25.5114 26.7417L25.8892 26.9228L25.9158 30.2311L25.9424 33.5392H26.747H27.5516V30.4521V27.365L27.9546 27.4343L28.3576 27.5037V26.6387V25.7739L27.9546 25.6509L27.5516 25.5279V20.4531V15.3784H28.7102H29.8688V14.5096V13.6409L28.7354 13.6118L27.602 13.5828L27.5729 12.6337L27.544 11.6846H26.7456H25.9472L25.9183 12.6337ZM27.9546 12.6845V13.2169L29.088 13.2459L30.2214 13.275V14.5062V15.7375L29.087 15.7665L27.9526 15.7955L27.9788 20.5241L28.0049 25.2527L28.3576 25.3688L28.7102 25.4848V26.7161V27.9473L28.3339 27.9175L27.9576 27.8875L27.9309 30.893L27.9042 33.8984H26.7456H25.587L25.5593 32.2823L25.5315 30.6663H25.0323H24.533L24.5937 31.1172C24.6605 31.6139 24.6071 31.663 23.9461 31.7121L23.6149 31.7366L23.643 32.5097C23.6584 32.9349 23.6316 34.0965 23.5834 35.0911C23.465 37.5386 23.5823 38.072 24.9696 41.3884L25.5276 42.7223L24.8168 42.8454C24.4258 42.9131 24.0538 42.9899 23.9901 43.0159C23.9264 43.042 26.9797 43.0559 30.7753 43.0467L37.6763 43.0301L37.878 42.6456C37.9889 42.4342 38.1364 42.261 38.2057 42.2609C38.275 42.2607 38.3316 42.2116 38.3316 42.1519C38.3316 42.0922 38.2795 42.076 38.2158 42.1161C38.1522 42.1562 38.2048 41.9991 38.3328 41.7673C38.4608 41.5353 38.6031 41.369 38.6489 41.398C38.6948 41.4268 38.7053 41.3788 38.6723 41.2912C38.6392 41.2033 38.665 41.1319 38.7297 41.1319C38.7943 41.1319 38.8221 41.0906 38.7915 41.0401C38.7608 40.9895 38.7921 40.9248 38.8611 40.8961C38.9783 40.8474 39.2729 40.2988 39.6984 39.3364C39.7982 39.1106 39.8868 38.9029 39.8952 38.8746C39.9037 38.8464 39.9397 38.7541 39.9753 38.6694C40.1356 38.2878 40.3465 37.252 40.3465 36.8463C40.3465 36.301 40.1503 36.3556 40.1334 36.9056C40.1269 37.1139 40.1014 37.2059 40.0766 37.1101C40.0443 36.9852 39.8979 36.9251 39.5594 36.8977L39.0872 36.8595L39.5657 36.841C40.1746 36.8175 40.197 36.6174 39.5909 36.6174C39.3416 36.6174 39.1376 36.5712 39.1376 36.5148C39.1376 36.4583 39.3605 36.4122 39.633 36.4122C40.1809 36.4122 40.4731 36.3324 40.3953 36.2042C40.3673 36.1581 40.3399 35.8166 40.3344 35.4454C40.329 35.0742 40.2947 34.7705 40.2582 34.7705C40.2217 34.7705 40.1993 34.6089 40.2085 34.4114C40.2197 34.1692 40.1806 34.0523 40.0885 34.0523C39.9788 34.0523 39.9638 34.2495 40.012 35.0545L40.0719 36.0567L39.5795 36.0076L39.0872 35.9584L39.5406 35.8929L39.9939 35.8273L39.5406 35.7965L39.0872 35.7657L39.5406 35.6939L39.9939 35.6221L39.5406 35.5913L39.0872 35.5605L39.5406 35.4887L39.9939 35.4169L39.5406 35.3861L39.0872 35.3553L39.5406 35.2835L39.9939 35.2117L39.5406 35.1809L39.0872 35.1501L39.5406 35.0783C39.9912 35.007 39.9917 35.0064 39.6221 34.9911C39.1445 34.9713 39.0329 34.7964 39.4631 34.7423L39.7924 34.7007L39.4398 34.6722L39.0872 34.6436L39.3894 34.5653L39.6917 34.487L39.4146 34.4748C39.0044 34.4568 39.0786 34.2761 39.5154 34.2296L39.8932 34.1893L39.5154 34.1721C39.3076 34.1627 39.1376 34.1115 39.1376 34.0584C39.1376 34.0055 39.3076 33.9439 39.5154 33.9217L39.8932 33.8815L39.5154 33.8643C39.3076 33.8549 39.1376 33.8036 39.1376 33.7506C39.1376 33.6977 39.3076 33.6361 39.5154 33.6139L39.8932 33.5737L39.5154 33.5565C39.2104 33.5425 39.1376 33.4997 39.1376 33.334C39.1376 33.1679 39.2095 33.1261 39.5154 33.1143L39.8932 33.0997L39.4902 33.0301L39.0872 32.9606L39.4902 32.908L39.8932 32.8555L39.4818 32.8383C39.1908 32.826 39.0704 32.776 39.0704 32.6671C39.0704 32.5575 39.1798 32.5132 39.4507 32.5132C39.6598 32.5132 39.8589 32.467 39.8932 32.4106C39.9313 32.3479 39.7767 32.308 39.4961 32.308C38.8855 32.308 38.9029 32.1073 39.5154 32.0867L39.9939 32.0706L39.4902 32.0002L38.9864 31.9298L39.465 31.9137C39.8711 31.9 39.9436 31.8665 39.9436 31.6924C39.9436 31.5143 39.8764 31.4872 39.4339 31.4872C39.1197 31.4872 38.9481 31.4478 38.9864 31.3846C39.0207 31.3281 39.2452 31.282 39.4853 31.282C39.9445 31.282 40.0443 31.1822 40.0443 30.7232C40.0443 30.5406 39.9457 30.4507 39.5975 30.3152C39.1623 30.146 39.1491 30.1274 39.0925 29.6087C39.0025 28.7838 38.8594 26.9504 38.8627 26.6648C38.8644 26.5237 38.8554 25.9927 38.8426 25.4848C38.8026 23.8889 39.0729 21.0216 39.3465 20.1399C39.4006 19.9654 39.4654 19.6422 39.4905 19.4217C39.5342 19.0361 39.7779 17.8911 40.1483 16.3316C40.2851 15.7554 40.3019 15.4873 40.2247 15.1188C40.1702 14.8586 40.1082 14.6634 40.0868 14.6853C39.9981 14.7757 39.0242 19.4343 38.8267 20.7138C38.5382 22.5822 38.4534 26.6583 38.6645 28.5117C38.7448 29.2171 38.8215 29.8404 38.8348 29.8968C38.9023 30.1813 38.8248 30.5773 38.7094 30.5381C38.4496 30.4499 38.0293 25.9678 38.0293 23.2846C38.0293 20.3956 38.4002 17.5663 39.0938 15.1637C39.1273 15.0479 38.8547 14.8048 38.157 14.3287C37.6158 13.9593 36.9758 13.5564 36.7349 13.4332C36.4087 13.2664 36.3091 13.1618 36.3445 13.0233C36.3851 12.8655 36.2765 12.8122 35.6241 12.6703C33.8728 12.2895 31.1614 12.2159 28.9908 12.4904C28.4351 12.5606 28.3414 12.546 28.1596 12.3608L27.9546 12.1521V12.6845ZM51.934 13.5511C51.9332 13.9851 51.9779 14.3687 52.0333 14.4036C52.1655 14.4868 52.1655 13.1241 52.0333 12.9159C51.9656 12.8092 51.9351 13.0037 51.934 13.5511ZM61.9585 13.0655C61.6269 13.2071 61.0602 13.5318 60.6992 13.787C59.5548 14.596 59.6597 14.3592 59.7817 15.8572C59.8407 16.5814 59.9195 17.8165 59.9568 18.6021C60.0201 19.9334 60.0128 20.0255 59.8492 19.9616C59.7526 19.9238 59.6343 19.8929 59.5861 19.8929C59.5381 19.8929 59.4823 19.6274 59.4623 19.303C59.4424 18.9785 59.4169 19.4056 59.4058 20.252C59.3946 21.0985 59.2981 22.6453 59.1912 23.6893C59.0843 24.7333 58.8983 26.534 58.778 27.6908C58.448 30.8631 58.5914 32.0248 59.6009 34.3562C59.8828 35.0073 60.162 35.6611 60.2213 35.8091C60.3167 36.0472 60.2864 36.1312 59.9592 36.5379C59.7558 36.7908 59.5894 37.0643 59.5894 37.1458C59.5894 37.2272 59.7679 37.4715 59.9862 37.6885L60.383 38.0832L59.975 38.576L59.567 39.0688L59.943 39.5361C60.3559 40.0494 60.3602 40.0205 59.7768 40.6702C59.5201 40.9561 59.4991 41.0474 59.4801 41.9528L59.4599 42.9275H66.7532C73.5373 42.9275 74.0641 42.915 74.2958 42.7479L74.5448 42.5684H74.1195C73.6443 42.5684 73.663 42.6097 73.6917 41.6233C73.7138 40.8651 73.627 40.3111 73.4863 40.3111C73.4362 40.3111 73.2593 40.1841 73.0931 40.0289L72.7909 39.7468L73.2599 39.3285L73.7289 38.9101L73.51 38.6872C73.3896 38.5646 73.291 38.4391 73.291 38.4084C73.291 38.3777 73.1808 38.2316 73.0462 38.0838L72.8013 37.8148L73.1722 37.5152C73.7619 37.0388 73.8375 36.72 73.3607 36.72C73.2292 36.72 73.0262 36.5748 72.8585 36.3609C72.6805 36.1336 72.627 36.0017 72.7127 36.0017C72.9127 36.0017 73.6898 35.1826 73.7599 34.8978C73.7933 34.7627 73.7732 34.5517 73.7155 34.4291C73.5267 34.0283 73.3832 32.3857 73.4227 31.0767C73.4581 29.9061 73.5803 29.1059 73.8065 28.563C73.8534 28.4501 73.9317 28.1685 73.9804 27.9374C74.057 27.5723 74.0422 27.5002 73.8678 27.3893C73.6013 27.2197 73.5542 27.3061 73.279 28.4677C73.0838 29.2921 73.0344 29.3957 72.8474 29.374C72.7312 29.3606 72.5053 29.3457 72.3452 29.341L72.0544 29.3325L72.1257 28.4347C72.2114 27.3555 72.4058 26.2948 72.7286 25.1449C72.9956 24.1931 73.0413 24.1121 73.2122 24.2861C73.487 24.566 73.6377 24.3847 73.751 23.638C73.7766 23.4687 73.8395 23.1686 73.8906 22.971C74.1458 21.985 74.2936 20.9579 74.3261 19.9442C74.3297 19.8307 74.1963 18.3794 74.1663 18.2064C74.1559 18.1464 74.2074 18.1101 74.2809 18.1256C74.3756 18.1456 74.3946 18.0859 74.3466 17.9204C74.2837 17.7043 73.259 15.7872 73.2259 15.8238C73.2177 15.8327 73.304 16.1864 73.4176 16.6096C73.5879 17.2441 73.6243 17.6851 73.6249 19.1234C73.6252 20.0827 73.58 21.0754 73.5242 21.3294C73.4366 21.7285 73.4215 21.6145 73.4129 20.4895C73.4075 19.7736 73.3534 18.8963 73.2928 18.54C73.1463 17.6795 72.8752 16.4044 72.8387 16.4044C72.8227 16.4044 72.439 16.3328 71.9861 16.2453C70.6846 15.9939 69.6004 15.5597 66.7928 14.1654L64.1734 12.8646L63.3674 12.8362C62.6938 12.8126 62.4624 12.8502 61.9585 13.0655ZM50.3206 14.5062C50.4129 14.6196 50.6585 14.6601 51.252 14.6601C51.957 14.6601 52.0422 14.6408 51.9325 14.5062C51.8401 14.3928 51.5946 14.3523 51.0011 14.3523C50.2961 14.3523 50.2108 14.3716 50.3206 14.5062ZM50.1191 15.1606C50.1191 15.6506 50.1523 15.7888 50.2702 15.7888C50.3838 15.7888 50.4213 15.6647 50.4213 15.2883C50.4213 14.9687 50.3667 14.7417 50.2702 14.6601C50.1386 14.5489 50.1191 14.6139 50.1191 15.1606ZM24.3955 16.1294C25.2691 16.8594 25.5366 16.8999 25.5366 16.3018V15.8914H24.8236H24.1107L24.3955 16.1294ZM54.0482 16.9627C54.0482 17.4114 54.0907 17.7382 54.149 17.7382C54.2065 17.7382 54.2497 17.4325 54.2497 17.0261C54.2497 16.6343 54.2044 16.2854 54.149 16.2505C54.0852 16.2104 54.0482 16.4717 54.0482 16.9627ZM59.1943 16.9772C59.1992 17.0968 59.223 17.1211 59.2552 17.0393C59.2843 16.9652 59.2807 16.8767 59.2472 16.8426C59.2138 16.8086 59.19 16.8691 59.1943 16.9772ZM59.3068 17.8922C59.3088 18.0614 59.3313 18.1183 59.3569 18.0185C59.3825 17.9186 59.3808 17.7801 59.3532 17.7106C59.3256 17.6412 59.3047 17.7229 59.3068 17.8922ZM50.1191 19.6626C50.1191 21.2703 50.1456 21.6344 50.2702 21.7398C50.4036 21.8526 50.4213 21.6392 50.4213 19.9181C50.4213 18.3104 50.3948 17.9462 50.2702 17.8408C50.1368 17.7281 50.1191 17.9414 50.1191 19.6626ZM73.3598 22.1695C73.3277 22.2513 73.3038 22.227 73.299 22.1074C73.2947 21.9993 73.3184 21.9387 73.3519 21.9728C73.3853 22.0069 73.389 22.0954 73.3598 22.1695ZM51.9325 24.1449C51.9325 24.7304 51.9731 25.1257 52.0333 25.1257C52.0929 25.1257 52.134 24.7515 52.134 24.2083C52.134 23.7037 52.0887 23.2624 52.0333 23.2276C51.9688 23.1869 51.9325 23.5172 51.9325 24.1449ZM50.1432 25.1512C50.0936 27.5151 50.0578 27.7424 50.0381 25.8183C50.0272 24.7602 50.0523 23.8944 50.0939 23.8943C50.1355 23.8942 50.1576 24.4598 50.1432 25.1512ZM73.5444 24.7306C73.2914 25.4268 72.9894 26.424 72.9919 26.5545C72.9937 26.6433 73.1012 26.7946 73.2309 26.8905L73.4667 27.0649L73.5772 26.5314C73.6379 26.238 73.752 25.7886 73.8305 25.533C73.962 25.105 73.9583 25.0491 73.7841 24.8299C73.6459 24.6561 73.5812 24.6293 73.5444 24.7306ZM51.0258 28.7169C51.0258 29.3258 51.059 29.5435 51.1474 29.5135C51.3193 29.4552 51.3232 27.9802 51.1517 27.9218C51.0578 27.8899 51.0258 28.092 51.0258 28.7169ZM54.149 31.2182C54.149 31.2721 54.1358 31.2969 54.1198 31.2734C54.1036 31.2499 53.9643 31.046 53.8102 30.8202L53.53 30.4098L53.8395 30.765C54.0097 30.9604 54.149 31.1644 54.149 31.2182ZM40.1089 30.9972C40.0759 31.2385 40.0188 31.9553 39.9819 32.5902C39.9245 33.5782 39.9366 33.7444 40.0661 33.7444C40.1813 33.7444 40.2204 33.6044 40.2308 33.1545C40.2499 32.3276 40.309 31.6012 40.3919 31.1728C40.4432 30.9081 40.4221 30.7727 40.3157 30.6829C40.1918 30.5781 40.1592 30.6274 40.1089 30.9972ZM54.5331 32.2755C54.6058 32.3051 54.6927 32.3014 54.7262 32.2674C54.7596 32.2333 54.7002 32.2091 54.594 32.2135C54.4766 32.2184 54.4527 32.2427 54.5331 32.2755ZM54.6339 32.8911C54.7065 32.9207 54.7935 32.9171 54.8269 32.883C54.8604 32.8489 54.8009 32.8247 54.6947 32.8291C54.5774 32.834 54.5535 32.8584 54.6339 32.8911ZM55.6844 38.2847L55.7106 43.0301L56.1386 43.0616C56.4075 43.0815 56.65 43.0338 56.7907 42.9333C57.0072 42.7789 56.9989 42.7736 56.545 42.7736C56.2865 42.7736 56.0471 42.8198 56.0128 42.8762C55.9785 42.9326 55.9192 42.9788 55.8809 42.9788C55.8426 42.9788 55.8235 40.8549 55.8385 38.259C55.8569 35.0723 55.832 33.5392 55.7619 33.5392C55.6919 33.5392 55.6666 35.0811 55.6844 38.2847ZM40.0255 33.9171C40.0981 33.9468 40.185 33.9431 40.2185 33.909C40.2519 33.875 40.1925 33.8507 40.0863 33.8552C39.9689 33.8601 39.9451 33.8844 40.0255 33.9171ZM40.0124 37.7653C39.9802 37.8471 39.9563 37.8228 39.9515 37.7032C39.9472 37.5951 39.971 37.5345 40.0044 37.5686C40.0378 37.6027 40.0415 37.6912 40.0124 37.7653ZM37.9286 42.8249L37.6919 43.0814H38.3972C39.0192 43.0814 39.1304 43.0511 39.3391 42.8249L39.5757 42.5684H38.8705C38.2485 42.5684 38.1372 42.5987 37.9286 42.8249ZM74.3741 42.8514L74.097 43.0263V44.7982C74.097 45.7726 74.1158 46.5699 74.1386 46.5699C74.1616 46.5699 74.3203 46.3761 74.4912 46.1393L74.8023 45.7087V44.1898C74.8023 43.3544 74.7683 42.6722 74.7267 42.6738C74.6851 42.6752 74.5265 42.7551 74.3741 42.8514ZM39.3592 42.9993C39.2746 43.0855 39.2385 43.6472 39.239 44.8718L39.2396 46.6212L39.4398 46.3134C39.6175 46.0402 39.6401 45.8297 39.6406 44.4409C39.641 43.5804 39.605 42.8762 39.5607 42.8762C39.5164 42.8762 39.4257 42.9316 39.3592 42.9993ZM41.9585 42.9788C41.614 43.0527 41.6171 43.0547 42.0844 43.0679C42.3477 43.0754 42.563 43.0352 42.563 42.9788C42.563 42.8662 42.4836 42.8662 41.9585 42.9788ZM56.7432 43.0896C56.5857 43.1831 56.5672 43.3871 56.5698 45.0104L56.5729 46.8264L56.8721 46.4913L57.1714 46.1562V44.5675C57.1714 42.9115 57.1527 42.8467 56.7432 43.0896ZM58.0781 44.9283V46.7751H66.0372H73.9963V44.9283V43.0814H66.0372H58.0781V44.9283ZM23.1416 45.0052L23.1691 46.8264L31.1533 46.8527L39.1376 46.879V45.0315V43.184H31.1258H23.114L23.1416 45.0052ZM50.5643 50.0334C49.6654 50.3618 48.9735 50.9879 48.4957 51.9053C48.2885 52.3031 48.2552 52.5091 48.2552 53.3931C48.2552 54.3066 48.2859 54.4826 48.5343 54.998C49.3911 56.7746 51.6209 57.515 53.3777 56.6061C53.9527 56.3088 54.6338 55.5626 54.9343 54.901C55.2693 54.1635 55.3067 52.9728 55.0211 52.135C54.7805 51.4284 54.0012 50.5609 53.2882 50.2057C52.5514 49.8386 51.3122 49.7602 50.5643 50.0334ZM62.1584 49.9894C61.9368 50.0641 61.6449 50.1858 61.5098 50.2597C61.0539 50.5092 60.2762 51.3335 60.0076 51.852C59.7704 52.3097 59.7406 52.4813 59.7406 53.3931C59.7405 54.3067 59.7711 54.4825 60.0195 54.998C60.7108 56.4314 62.3508 57.2507 63.8897 56.9313C65.0647 56.6873 65.9177 56.0016 66.425 54.8932C66.7809 54.1155 66.8021 52.729 66.4695 51.9857C66.171 51.3183 65.4127 50.5242 64.7668 50.2023C64.1128 49.8765 62.8093 49.77 62.1584 49.9894ZM83.7976 49.9961C83.1788 50.2018 82.5316 50.6142 82.1712 51.0322C81.2365 52.1164 81.0315 53.727 81.6599 55.049C81.9619 55.6844 82.938 56.5655 83.5879 56.7892C84.2793 57.0271 85.3725 57.0277 86.062 56.7903C86.7317 56.5597 87.6176 55.751 87.9746 55.0442C88.3522 54.2969 88.4139 52.9243 88.1072 52.0955C87.6285 50.8022 86.4266 49.9493 84.9964 49.888C84.5241 49.8677 84.0566 49.9099 83.7976 49.9961ZM1.76017 53.3913V56.8303H2.51577H3.27138V54.1113V51.3923H4.37961H5.48783V54.1113V56.8303H6.29512H7.10252L7.07592 53.4187L7.04942 50.0072L4.40479 49.9798L1.76017 49.9525V53.3913ZM9.08694 53.2135C8.38564 55.0052 7.78206 56.554 7.74559 56.6551C7.68484 56.824 7.7477 56.8366 8.51238 56.809L9.34526 56.779L9.5528 56.1861L9.76044 55.5931L10.9739 55.6217L12.1876 55.6504L12.387 56.2403L12.5865 56.8303H13.4305C14.0654 56.8303 14.262 56.7985 14.224 56.7021C14.1962 56.6316 13.5949 55.0847 12.8878 53.2648L11.602 49.9559H10.9821H10.3621L9.08694 53.2135ZM14.8574 53.3931V56.8303H15.627H16.3966L16.3474 54.3149C16.3203 52.9314 16.3116 51.8131 16.3279 51.8296C16.3576 51.8599 16.8331 53.3709 17.5223 55.6247L17.891 56.8303H18.4214H18.952L19.6911 54.4448C20.0978 53.1327 20.4672 51.99 20.5121 51.9053C20.5571 51.8207 20.5953 52.8942 20.597 54.2909L20.6 56.8303H21.2549H21.9097V53.3931V49.9559H20.9213H19.9327L19.2407 52.1875C18.8601 53.4148 18.5199 54.4788 18.4848 54.5518C18.4295 54.6669 18.0271 53.4938 17.1634 50.6997L16.9334 49.9559H15.8954H14.8574V53.3931ZM24.7022 50.0679C23.5869 50.3353 23.0157 51.0888 23.0202 52.2868C23.0238 53.2725 23.45 53.9712 24.2575 54.3148C24.6898 54.4987 24.7012 54.4552 23.9762 55.3939C23.693 55.7607 23.3335 56.234 23.1772 56.4456L22.8933 56.8303L23.7867 56.8285L24.6803 56.8265L25.4863 55.6524L26.2922 54.4782L26.3206 55.6543L26.349 56.8303H27.1014H27.8538V53.3931V49.9559L26.4685 49.9661C25.7067 49.9719 24.9118 50.0176 24.7022 50.0679ZM28.6006 50.0963C28.5714 50.1736 28.5615 50.4853 28.5785 50.7889L28.6094 51.341L29.2895 51.3714L29.9695 51.4017V54.116V56.8303H30.7251H31.4807V54.1113V51.3923H32.1356H32.7905V50.6741V49.9559H30.722C29.0641 49.9559 28.643 49.9838 28.6006 50.0963ZM33.5668 50.0202C33.5277 50.06 33.4957 51.6127 33.4957 53.4706V56.8484L35.0825 56.8137C36.5543 56.7815 36.7018 56.7604 37.1187 56.5225C37.9368 56.0557 38.2778 55.1746 38.0424 54.1361C37.8102 53.1117 37.209 52.6718 35.8855 52.5578L35.1136 52.4914L35.0855 51.2493L35.0573 50.0072L34.3476 49.9774C33.9573 49.9611 33.606 49.9804 33.5668 50.0202ZM41.9585 53.3913V56.8303H42.7141H43.4697V54.1113V51.3923H44.5779H45.6862V54.1113V56.8303H46.4935H47.3009L47.2743 53.4187L47.2478 50.0072L44.6031 49.9798L41.9585 49.9525V53.3913ZM55.3579 50.6741V51.3923H56.0128H56.6677V54.1113V56.8303H57.4233H58.1789V54.1113V51.3923H58.8841H59.5894V50.6741V49.9559H57.4736H55.3579V50.6741ZM67.6492 53.3895V56.8303H68.3527H69.0561L69.0831 54.3011L69.11 51.7718L69.8796 54.2755L70.6491 56.779L71.1893 56.809L71.7294 56.8389L72.4758 54.429C72.8862 53.1035 73.2489 51.9746 73.2818 51.9203C73.3145 51.866 73.3272 52.9486 73.3098 54.326L73.278 56.8303H73.9898H74.7015V53.3931V49.9559H73.7013H72.7011L72.1342 51.7771C71.8223 52.7788 71.4857 53.8522 71.386 54.1626L71.2049 54.7269L70.4558 52.3671L69.7068 50.0072L68.678 49.9779L67.6492 49.9487V53.3895ZM76.112 53.3931V56.8303H76.8649H77.6179L77.6457 55.3214L77.6736 53.8125L78.6307 55.3212L79.5878 56.8299L80.4693 56.8301C80.9542 56.8302 81.3509 56.8037 81.3509 56.7712C81.3509 56.7386 80.8446 55.9927 80.2258 55.1134C79.6071 54.2343 79.1009 53.4618 79.1009 53.3969C79.1009 53.3319 79.5762 52.5889 80.1573 51.7456C80.7383 50.9023 81.2472 50.1547 81.2882 50.0841C81.3453 49.9858 81.174 49.9559 80.5562 49.9559H79.7497L78.7116 51.515L77.6736 53.0742L77.6458 51.515L77.618 49.9559H76.865H76.112V53.3931ZM89.3099 53.3819V56.8303L90.796 56.8297C92.4368 56.8291 92.8814 56.7457 93.3403 56.3524C93.7933 55.9642 93.9773 55.5306 93.9864 54.8295C93.9959 54.1008 93.7597 53.6103 93.2711 53.3444L92.9506 53.1699L93.2662 52.8485C93.5405 52.5691 93.5865 52.443 93.618 51.8828C93.6656 51.0367 93.4464 50.615 92.7769 50.2638C92.3334 50.0313 92.1496 50.004 90.799 49.9704L89.3099 49.9335V53.3819ZM52.4647 51.4314C52.8598 51.604 53.3933 52.1615 53.5383 52.5533C53.706 53.0062 53.6634 53.959 53.4548 54.4191C52.8452 55.7644 51.2256 55.9804 50.2484 54.847C48.8499 53.225 50.5552 50.5969 52.4647 51.4314ZM64.08 51.4985C64.7421 51.825 65.0698 52.3924 65.1143 53.2892C65.1435 53.8775 65.1099 54.109 64.949 54.4285C64.6968 54.9295 64.3786 55.2359 63.8981 55.4402C63.1437 55.7613 62.2916 55.5218 61.7332 54.8319C60.3167 53.0817 62.1137 50.5291 64.08 51.4985ZM85.9563 51.6594C86.795 52.3388 87.021 53.4475 86.527 54.4572C86.1544 55.2185 85.6427 55.548 84.834 55.5472C84.0434 55.5464 83.5682 55.2593 83.1612 54.5364C82.5267 53.4099 82.9024 52.0589 84.0207 51.4453C84.2329 51.3288 84.5092 51.29 84.9489 51.3148C85.4633 51.344 85.6427 51.4053 85.9563 51.6594ZM26.3426 52.4303V53.4683L25.691 53.426C25.1865 53.3933 24.9837 53.3305 24.7928 53.1479C24.4754 52.8442 24.3908 52.4863 24.5329 52.0479C24.68 51.5937 25.0431 51.4016 25.7633 51.3964L26.3426 51.3923V52.4303ZM91.936 51.4985C92.0777 51.5758 92.1309 51.7143 92.1309 52.0057C92.1309 52.5181 91.8626 52.7262 91.2017 52.7262H90.7204V52.0592V51.3923H91.2308C91.5115 51.3923 91.8288 51.4401 91.936 51.4985ZM11.3765 53.1347C11.5732 53.7544 11.7342 54.2853 11.7342 54.3147C11.7342 54.3439 11.3942 54.3678 10.9786 54.3678C10.563 54.3678 10.223 54.3439 10.223 54.3147C10.223 54.1993 10.9408 52.0079 10.9786 52.0079C11.0007 52.0079 11.1798 52.515 11.3765 53.1347ZM36.1151 53.9876C36.2537 54.0589 36.4251 54.2407 36.4961 54.3915C36.7797 54.9937 36.3336 55.4965 35.5157 55.4965H35.1077V54.6756V53.8548L35.4855 53.8563C35.6933 53.8572 35.9766 53.9163 36.1151 53.9876ZM92.2684 54.1701C92.589 54.4269 92.6191 54.8535 92.3412 55.2029C92.1729 55.4148 92.0622 55.4452 91.4597 55.4452H90.7708L90.7411 54.7013L90.7115 53.9574H91.3572C91.8579 53.9574 92.0626 54.0051 92.2684 54.1701Z" fill="#4573B8"/>
</svg>
