<svg width="158" height="95" viewBox="0 0 158 95" fill="none" xmlns="http://www.w3.org/2000/svg">
<path fill-rule="evenodd" clip-rule="evenodd" d="M71.6268 0.172182C56.5821 1.2025 42.3461 6.63281 30.4072 15.895C27.5694 18.0967 25.7584 19.7097 22.9702 22.5191C16.675 28.8621 11.9198 35.5967 8.03448 43.6718C3.36141 53.3836 0.849197 62.987 0.0846237 74.0591C-0.119966 77.0228 0.0181025 77.9668 0.812501 79.0347C2.40767 81.1795 5.47735 81.352 7.32637 79.4007C8.34212 78.3286 8.42355 77.8878 8.52476 72.9139C8.68662 64.9619 9.60669 58.9023 11.6926 52.0511C16.7841 35.3284 28.0845 20.483 42.6452 11.3887C52.9233 4.96908 63.8254 1.36478 76.3308 0.251871L78.9156 0.0218678L76.3184 0.0252879C74.89 0.027169 72.7787 0.0933485 71.6268 0.172182ZM80.7588 0.162606C91.2954 1.01251 99.8728 3.29733 108.574 7.57197C116.001 11.2201 122.413 15.8791 128.356 21.9437C135.574 29.3101 140.914 37.6185 144.576 47.1774C147.765 55.5032 149.274 63.4818 149.475 73.0849C149.575 77.8726 149.663 78.3348 150.672 79.4007C152.521 81.352 155.591 81.1795 157.186 79.0347C157.977 77.9716 158.12 77.0119 157.917 74.1419C156.165 49.4448 144.491 28.0327 125.147 14.0352C121.031 11.0567 114.597 7.50477 109.631 5.46877C100.831 1.86156 90.7046 -0.0952717 81.3481 0.00357007L79.0832 0.027511L80.7588 0.162606ZM80.305 19.6026L80.2561 20.9279L78.7899 20.9773L77.3238 21.0268V22.3881V23.7495L78.7899 23.7839L80.2561 23.8183L78.9431 23.8769C77.8161 23.9272 77.6587 23.9708 77.8325 24.1846C77.9743 24.3587 78.3839 24.4336 79.1958 24.4336H80.3566L80.3063 25.4168L80.2561 26.4001L77.0306 26.4466L73.805 26.493V27.8434C73.805 29.1921 73.8057 29.1942 74.3694 29.5497C74.8801 29.8719 75.1909 29.9058 77.6368 29.9058H80.3399V32.2143C80.3399 33.4841 80.2934 34.5229 80.2366 34.5229C80.1421 34.5229 79.2497 33.89 77.8684 32.843L77.3238 32.4303V34.2122V35.9941L78.8318 37.0786L80.3399 38.1631V42.1572V46.1514H79.5021H78.6643V47.7759V49.4005H78.0116C76.9473 49.4005 75.2856 50.0149 74.5044 50.6972C73.4486 51.6195 72.9944 52.6896 72.7139 54.9155L72.6115 55.7277H71.7841H70.9565V63.8505V71.9733H69.1972H67.4378V75.0515V78.1296H80.675H93.9122V75.0515V71.9733H93.1581H92.4041V63.8505V55.7277H91.7496C91.1776 55.7277 91.106 55.6846 91.1826 55.3857C91.2424 55.1525 91.1878 55.0437 91.011 55.0437C90.8684 55.0437 90.7192 55.2168 90.6793 55.4285C90.6392 55.6402 90.5963 55.4574 90.5838 55.0223C90.5712 54.5873 90.5139 53.991 90.4562 53.697C90.3696 53.2546 90.4041 53.1626 90.6573 53.1626C90.8951 53.1626 90.9184 53.117 90.762 52.9574C90.6515 52.8446 90.561 52.6471 90.561 52.5185C90.561 52.0945 89.4217 50.7106 89.0529 50.6865C89.0069 50.6836 88.7053 50.5156 88.3827 50.3135C87.6305 49.8424 86.1565 49.4005 85.3361 49.4005H84.6964V47.7759C84.6964 46.1647 84.6931 46.1514 84.2849 46.1514H83.8732L83.8241 43.0874C83.7916 41.0641 83.8318 40.0678 83.9424 40.154C84.7502 40.7835 86.0404 41.7052 86.1134 41.7052C86.1635 41.7052 86.2044 40.943 86.2044 40.0114V38.3174L84.6964 37.192L83.1884 36.0666V32.7298C83.1884 30.8943 83.2494 29.3927 83.3239 29.3927C83.3985 29.3927 83.6058 29.5058 83.7847 29.6438C84.0409 29.8416 84.7267 29.896 87.0183 29.9003C89.6027 29.9051 89.9152 29.8757 89.8249 29.6352C89.7689 29.4864 89.7232 28.7186 89.7232 27.9289V26.493L86.4977 26.4466L83.2721 26.4001V25.1176V23.835L84.7383 23.7856L86.2044 23.7362V22.3815V21.0268L84.7383 20.9773L83.2721 20.9279L83.2232 19.6026L83.1743 18.2773H81.7641H80.3539L80.305 19.6026ZM83.3559 19.6982C83.3559 20.6013 83.4089 20.8424 83.6073 20.8424C83.9456 20.8424 83.9415 19.3442 83.6019 18.8859C83.3777 18.5834 83.3559 18.6554 83.3559 19.6982ZM43.1062 21.0562L43.0579 22.638L41.2566 22.6866L39.4554 22.7351V24.2625V25.79L41.2566 25.8385L43.0579 25.8871V33.7534V41.6197L42.4296 41.5696L41.8012 41.5193V42.8935V44.2676L42.4296 44.5696L43.0579 44.8714L43.1021 50.3852L43.1464 55.8987H44.4845H45.8226V50.7535V45.6083L46.4929 45.7239L47.1631 45.8395V44.3979V42.9565L46.4929 42.7514L45.8226 42.5466V34.0886V25.6306H47.7496H49.6765V24.1827V22.7348L47.7915 22.6864L45.9064 22.638L45.8582 21.0562L45.8101 19.4744H44.4822H43.1543L43.1062 21.0562ZM46.4929 21.1408V22.0282L48.3779 22.0766L50.263 22.125V24.177V26.2291L48.3762 26.2775L46.4895 26.3259L46.5331 34.2069L46.5766 42.0879L47.1631 42.2813L47.7496 42.4747V44.5268V46.5789L47.1237 46.5291L46.4979 46.4792L46.4535 51.4883L46.4091 56.4973H44.4822H42.5552L42.5091 53.8039L42.4629 51.1106H41.6326H40.8022L40.9033 51.862C41.0144 52.6898 40.9255 52.7717 39.8262 52.8535L39.2752 52.8943L39.322 54.1829C39.3476 54.8915 39.3031 56.8275 39.223 58.4852C39.0259 62.5644 39.2211 63.4533 41.5284 68.9807L42.4564 71.2038L41.2742 71.409C40.6239 71.5219 40.0053 71.6498 39.8994 71.6932C39.7933 71.7367 44.8716 71.7598 51.1842 71.7445L62.6617 71.7168L62.9971 71.0761C63.1816 70.7236 63.4269 70.435 63.542 70.4348C63.6573 70.4345 63.7515 70.3527 63.7515 70.2532C63.7515 70.1537 63.6649 70.1267 63.559 70.1935C63.4531 70.2604 63.5407 69.9986 63.7535 69.6121C63.9665 69.2254 64.2031 68.9484 64.2793 68.9966C64.3555 69.0447 64.373 68.9647 64.3182 68.8186C64.263 68.6722 64.3059 68.5532 64.4137 68.5532C64.5211 68.5532 64.5673 68.4843 64.5164 68.4002C64.4653 68.3159 64.5174 68.208 64.6322 68.1602C64.827 68.079 65.317 67.1646 66.0248 65.5606C66.1906 65.1844 66.3381 64.8381 66.352 64.7911C66.3661 64.744 66.4261 64.5901 66.4852 64.4491C66.7518 63.8131 67.1027 62.0866 67.1027 61.4104C67.1027 60.5017 66.7763 60.5927 66.7481 61.5093C66.7374 61.8564 66.695 62.0098 66.6538 61.8501C66.6 61.642 66.3565 61.5418 65.7935 61.4961L65.0082 61.4325L65.8041 61.4017C66.8166 61.3626 66.854 61.0289 65.846 61.0289C65.4313 61.0289 65.092 60.952 65.092 60.8579C65.092 60.7639 65.4628 60.6869 65.916 60.6869C66.8272 60.6869 67.3131 60.554 67.1838 60.3403C67.1372 60.2635 67.0916 59.6944 67.0826 59.0757C67.0735 58.457 67.0164 57.9508 66.9557 57.9508C66.8951 57.9508 66.8579 57.6815 66.8731 57.3523C66.8917 56.9487 66.8267 56.7538 66.6735 56.7538C66.4911 56.7538 66.4661 57.0824 66.5462 58.4242L66.6459 60.0946L65.827 60.0126L65.0082 59.9307L65.7622 59.8215L66.5162 59.7122L65.7622 59.6609L65.0082 59.6096L65.7622 59.4899L66.5162 59.3702L65.7622 59.3189L65.0082 59.2676L65.7622 59.1479L66.5162 59.0282L65.7622 58.9769L65.0082 58.9256L65.7622 58.8059L66.5162 58.6861L65.7622 58.6348L65.0082 58.5835L65.7622 58.4638C66.5117 58.345 66.5125 58.344 65.8978 58.3185C65.1035 58.2855 64.9179 57.9941 65.6333 57.9038L66.1811 57.8345L65.5946 57.787L65.0082 57.7393L65.5109 57.6088L66.0135 57.4783L65.5527 57.458C64.8704 57.4281 64.9939 57.1269 65.7203 57.0493L66.3487 56.9822L65.7203 56.9535C65.3748 56.9378 65.092 56.8524 65.092 56.764C65.092 56.6758 65.3748 56.5732 65.7203 56.5363L66.3487 56.4692L65.7203 56.4405C65.3748 56.4248 65.092 56.3394 65.092 56.251C65.092 56.1628 65.3748 56.0602 65.7203 56.0232L66.3487 55.9562L65.7203 55.9275C65.2131 55.9042 65.092 55.8329 65.092 55.5567C65.092 55.2799 65.2116 55.2101 65.7203 55.1904L66.3487 55.1661L65.6784 55.0502L65.0082 54.9343L65.6784 54.8467L66.3487 54.7592L65.6645 54.7304C65.1804 54.7101 64.9802 54.6266 64.9802 54.4452C64.9802 54.2626 65.1622 54.1887 65.6127 54.1887C65.9606 54.1887 66.2917 54.1117 66.3487 54.0177C66.412 53.9132 66.155 53.8467 65.6883 53.8467C64.6727 53.8467 64.7017 53.5122 65.7203 53.4778L66.5162 53.451L65.6784 53.3336L64.8406 53.2163L65.6365 53.1895C66.312 53.1667 66.4324 53.1108 66.4324 52.8206C66.4324 52.5238 66.3207 52.4786 65.5848 52.4786C65.0623 52.4786 64.7768 52.4129 64.8406 52.3076C64.8976 52.2136 65.2709 52.1366 65.6704 52.1366C66.4339 52.1366 66.6 51.9704 66.6 51.2053C66.6 50.9011 66.436 50.7511 65.8569 50.5254C65.1332 50.2434 65.1111 50.2123 65.0171 49.3478C64.8673 47.9729 64.6293 44.9174 64.6349 44.4413C64.6377 44.2062 64.6226 43.3212 64.6013 42.4747C64.5348 39.8149 64.9844 35.0359 65.4395 33.5665C65.5295 33.2756 65.6372 32.7369 65.6789 32.3694C65.7516 31.7268 66.157 29.8185 66.7729 27.2194C67.0005 26.259 67.0284 25.8122 66.9001 25.198C66.8094 24.7643 66.7062 24.439 66.6707 24.4754C66.5231 24.6261 64.9035 32.3905 64.5749 34.5229C64.0951 37.637 63.9541 44.4305 64.3051 47.5194C64.4386 48.6951 64.5663 49.734 64.5884 49.828C64.7007 50.3022 64.5719 50.9621 64.3798 50.8968C63.9477 50.7499 63.2488 43.2797 63.2488 38.8077C63.2488 33.9926 63.8656 29.2771 65.0192 25.2729C65.0749 25.0798 64.6215 24.6747 63.4611 23.8812C62.561 23.2656 61.4966 22.594 61.096 22.3887C60.5534 22.1106 60.3877 21.9363 60.4467 21.7055C60.5142 21.4425 60.3336 21.3537 59.2485 21.1172C56.3358 20.4824 51.8263 20.3598 48.2162 20.8173C47.2921 20.9344 47.1363 20.91 46.8339 20.6013L46.4929 20.2535V21.1408ZM86.3745 22.5851C86.3732 23.3085 86.4474 23.9479 86.5396 24.006C86.7594 24.1447 86.7594 21.8736 86.5396 21.5264C86.4269 21.3486 86.3764 21.6728 86.3745 22.5851ZM103.047 21.7758C102.495 22.0118 101.553 22.553 100.952 22.9783C99.049 24.3267 99.2235 23.932 99.4264 26.4287C99.5246 27.6356 99.6556 29.6942 99.7176 31.0035C99.823 33.2223 99.8108 33.3758 99.5386 33.2693C99.3779 33.2064 99.1812 33.1549 99.1011 33.1549C99.0212 33.1549 98.9284 32.7123 98.8952 32.1716C98.862 31.6309 98.8196 32.3426 98.8012 33.7534C98.7826 35.1642 98.6221 37.7421 98.4443 39.4821C98.2665 41.2221 97.9572 44.2233 97.7571 46.1514C97.2082 51.4386 97.4468 53.3747 99.1258 57.2603C99.5946 58.3455 100.059 59.4352 100.158 59.6819C100.316 60.0787 100.266 60.2187 99.7216 60.8966C99.3833 61.3179 99.1065 61.7738 99.1065 61.9096C99.1065 62.0454 99.4034 62.4526 99.7665 62.8142L100.427 63.4719L99.7479 64.2933L99.0693 65.1146L99.6946 65.8936C100.381 66.7489 100.389 66.7009 99.4183 67.7837C98.9914 68.2601 98.9564 68.4123 98.9249 69.9213L98.8912 71.5458H111.021C122.304 71.5458 123.18 71.525 123.566 71.2466L123.98 70.9473H123.272C122.482 70.9473 122.513 71.0162 122.561 69.3722C122.598 68.1084 122.453 67.1852 122.219 67.1852C122.136 67.1852 121.842 66.9735 121.565 66.7149L121.063 66.2446L121.843 65.5474L122.623 64.8502L122.259 64.4786C122.058 64.2743 121.895 64.0652 121.895 64.014C121.895 63.9629 121.711 63.7194 121.487 63.473L121.08 63.0247L121.697 62.5254C122.678 61.7313 122.803 61.1999 122.01 61.1999C121.792 61.1999 121.454 60.958 121.175 60.6014C120.879 60.2226 120.79 60.0029 120.933 60.0029C121.265 60.0029 122.558 58.6377 122.674 58.163C122.73 57.9378 122.697 57.5862 122.601 57.3819C122.286 56.7138 122.048 53.9761 122.114 51.7946C122.172 49.8436 122.376 48.5099 122.752 47.6049C122.83 47.4168 122.96 46.9476 123.041 46.5623C123.169 45.9539 123.144 45.8336 122.854 45.6488C122.411 45.3661 122.332 45.5101 121.875 47.4462C121.55 48.8201 121.468 48.9928 121.157 48.9567C120.963 48.9343 120.588 48.9095 120.322 48.9017L119.838 48.8875L119.956 47.3912C120.099 45.5925 120.422 43.8247 120.959 41.9082C121.403 40.3218 121.479 40.1868 121.763 40.4769C122.22 40.9434 122.471 40.6412 122.659 39.3966C122.702 39.1145 122.807 38.6143 122.892 38.2851C123.316 36.6417 123.562 34.9298 123.616 33.2404C123.622 33.0513 123.4 30.6324 123.35 30.344C123.333 30.244 123.419 30.1835 123.541 30.2093C123.698 30.2426 123.73 30.1431 123.65 29.8673C123.546 29.5071 121.841 26.3121 121.786 26.3729C121.773 26.3878 121.916 26.9773 122.105 27.6827C122.388 28.7402 122.449 29.4752 122.45 31.8723C122.45 33.4712 122.375 35.1257 122.282 35.549C122.137 36.2142 122.112 36.0242 122.097 34.1491C122.088 32.956 121.998 31.4939 121.897 30.9C121.654 29.4658 121.203 27.3407 121.142 27.3407C121.116 27.3407 120.478 27.2213 119.724 27.0754C117.56 26.6565 115.757 25.9328 111.087 23.609L106.73 21.4409L105.39 21.3937C104.27 21.3544 103.885 21.417 103.047 21.7758ZM83.691 24.177C83.8447 24.366 84.253 24.4336 85.2401 24.4336C86.4127 24.4336 86.5545 24.4014 86.372 24.177C86.2183 23.9881 85.81 23.9205 84.8229 23.9205C83.6503 23.9205 83.5086 23.9527 83.691 24.177ZM83.3559 25.2677C83.3559 26.0843 83.4112 26.3146 83.6073 26.3146C83.7963 26.3146 83.8586 26.1079 83.8586 25.4805C83.8586 24.9478 83.7678 24.5695 83.6073 24.4336C83.3884 24.2482 83.3559 24.3564 83.3559 25.2677ZM40.5735 26.8824C42.0266 28.0991 42.4714 28.1665 42.4714 27.1697V26.4856H41.2856H40.1L40.5735 26.8824ZM89.8907 28.2711C89.8907 29.0189 89.9614 29.5637 90.0583 29.5637C90.154 29.5637 90.2259 29.0541 90.2259 28.3768C90.2259 27.7239 90.1505 27.1423 90.0583 27.0842C89.9522 27.0173 89.8907 27.4528 89.8907 28.2711ZM98.4495 28.2954C98.4575 28.4946 98.4973 28.5351 98.5507 28.3988C98.5991 28.2754 98.5931 28.1278 98.5375 28.071C98.4818 28.0143 98.4423 28.1151 98.4495 28.2954ZM98.6365 29.8203C98.6399 30.1024 98.6774 30.1972 98.7199 30.0308C98.7625 29.8644 98.7597 29.6335 98.7137 29.5177C98.6678 29.402 98.6331 29.5381 98.6365 29.8203ZM83.3559 32.771C83.3559 35.4505 83.4 36.0574 83.6073 36.233C83.8291 36.4209 83.8586 36.0654 83.8586 33.1968C83.8586 30.5173 83.8145 29.9104 83.6073 29.7347C83.3854 29.5468 83.3559 29.9023 83.3559 32.771ZM122.009 36.9492C121.956 37.0855 121.916 37.0449 121.908 36.8457C121.901 36.6655 121.94 36.5646 121.996 36.6213C122.051 36.6781 122.057 36.8257 122.009 36.9492ZM86.372 40.2416C86.372 41.2173 86.4395 41.8762 86.5396 41.8762C86.6387 41.8762 86.7071 41.2525 86.7071 40.3472C86.7071 39.5062 86.6317 38.7707 86.5396 38.7126C86.4323 38.6449 86.372 39.1953 86.372 40.2416ZM83.396 41.9186C83.3135 45.8584 83.2541 46.2374 83.2212 43.0305C83.2031 41.2671 83.2448 39.824 83.314 39.8238C83.3832 39.8236 83.4199 40.7664 83.396 41.9186ZM122.316 41.2177C121.895 42.3779 121.393 44.04 121.397 44.2575C121.4 44.4056 121.579 44.6576 121.795 44.8175L122.187 45.1082L122.37 44.219C122.471 43.7299 122.661 42.9811 122.792 42.5549C123.011 41.8417 123.004 41.7485 122.715 41.3832C122.485 41.0935 122.377 41.0489 122.316 41.2177ZM84.864 47.8614C84.864 48.8764 84.9193 49.2392 85.0662 49.1891C85.3521 49.092 85.3586 46.6336 85.0734 46.5363C84.9172 46.4831 84.864 46.82 84.864 47.8614ZM90.0583 52.0304C90.0583 52.1202 90.0363 52.1616 90.0097 52.1224C89.9829 52.0832 89.7512 51.7433 89.4948 51.3671L89.0288 50.683L89.5435 51.2751C89.8267 51.6007 90.0583 51.9406 90.0583 52.0304ZM66.7074 51.6621C66.6526 52.0641 66.5576 53.2589 66.4963 54.3169C66.4008 55.9637 66.4209 56.2408 66.6362 56.2408C66.8279 56.2408 66.8929 56.0073 66.9101 55.2575C66.942 53.8793 67.0402 52.6686 67.1781 51.9546C67.2634 51.5135 67.2283 51.2879 67.0514 51.1381C66.8453 50.9635 66.7912 51.0457 66.7074 51.6621ZM90.6972 53.7925C90.818 53.8419 90.9626 53.8357 91.0182 53.7789C91.0739 53.7222 90.975 53.6818 90.7984 53.6892C90.6032 53.6974 90.5635 53.7379 90.6972 53.7925ZM90.8648 54.8185C90.9856 54.8679 91.1302 54.8618 91.1858 54.805C91.2414 54.7482 91.1426 54.7079 90.966 54.7152C90.7708 54.7234 90.731 54.7639 90.8648 54.8185ZM92.6119 63.8078L92.6555 71.7168L93.3674 71.7693C93.8146 71.8025 94.218 71.723 94.4519 71.5556C94.812 71.2982 94.7982 71.2893 94.0432 71.2893C93.6134 71.2893 93.2151 71.3663 93.1581 71.4603C93.1012 71.5544 93.0025 71.6313 92.9388 71.6313C92.8751 71.6313 92.8433 68.0915 92.8683 63.765C92.8988 58.4539 92.8574 55.8987 92.7409 55.8987C92.6245 55.8987 92.5824 58.4685 92.6119 63.8078ZM66.5687 56.5286C66.6895 56.578 66.8341 56.5718 66.8897 56.515C66.9453 56.4583 66.8465 56.4179 66.6699 56.4253C66.4747 56.4335 66.4349 56.474 66.5687 56.5286ZM66.5469 62.9422C66.4934 63.0784 66.4537 63.0379 66.4457 62.8387C66.4385 62.6585 66.478 62.5576 66.5336 62.6143C66.5893 62.6711 66.5953 62.8187 66.5469 62.9422ZM63.0812 71.3748L62.6876 71.8023H63.8606C64.8951 71.8023 65.0801 71.7519 65.4271 71.3748L65.8207 70.9473H64.6478C63.6132 70.9473 63.4283 70.9978 63.0812 71.3748ZM123.696 71.4189L123.235 71.7105V74.6636C123.235 76.2877 123.266 77.6166 123.304 77.6166C123.342 77.6166 123.606 77.2935 123.891 76.8988L124.408 76.1811V73.6497C124.408 72.2574 124.351 71.1204 124.282 71.1229C124.213 71.1253 123.949 71.2585 123.696 71.4189ZM65.4606 71.6655C65.3198 71.8092 65.2598 72.7453 65.2607 74.7864L65.2617 77.7021L65.5946 77.189C65.8902 76.7337 65.9277 76.3829 65.9286 74.0682C65.9293 72.6339 65.8694 71.4603 65.7957 71.4603C65.722 71.4603 65.5712 71.5527 65.4606 71.6655ZM69.7836 71.6313C69.2107 71.7545 69.2158 71.7579 69.9931 71.7798C70.4309 71.7923 70.789 71.7254 70.789 71.6313C70.789 71.4437 70.6569 71.4437 69.7836 71.6313ZM94.373 71.816C94.1109 71.9718 94.0802 72.3118 94.0846 75.0173L94.0896 78.0441L94.5873 77.4856L95.0851 76.9271V74.2792C95.0851 71.5192 95.0539 71.4112 94.373 71.816ZM96.5931 74.8805V77.9586H109.83H123.067V74.8805V71.8023H109.83H96.5931V74.8805ZM38.4881 75.0087L38.5338 78.0441L51.8129 78.0879L65.092 78.1316V75.0525V71.9733H51.7671H38.4423L38.4881 75.0087ZM84.0964 83.3891C82.6014 83.9363 81.4506 84.9799 80.656 86.5089C80.3114 87.1719 80.2561 87.5151 80.2561 88.9885C80.2561 90.511 80.307 90.8044 80.7202 91.6634C82.1451 94.6244 85.8537 95.8583 88.7756 94.3436C89.7319 93.848 90.8646 92.6044 91.3644 91.5016C91.9216 90.2726 91.9837 88.288 91.5089 86.8916C91.1086 85.7141 89.8125 84.2682 88.6267 83.6762C87.4013 83.0643 85.3403 82.9337 84.0964 83.3891ZM103.379 83.3157C103.011 83.4402 102.525 83.643 102.301 83.7661C101.542 84.182 100.249 85.5559 99.802 86.42C99.4076 87.1828 99.358 87.4689 99.358 88.9885C99.3578 90.5111 99.4088 90.8042 99.822 91.6634C100.972 94.0523 103.699 95.4178 106.259 94.8855C108.213 94.4788 109.632 93.336 110.475 91.4886C111.067 90.1925 111.102 87.8817 110.549 86.6428C110.053 85.5306 108.792 84.207 107.717 83.6705C106.63 83.1276 104.462 82.9501 103.379 83.3157ZM139.369 83.3268C138.34 83.6697 137.263 84.3569 136.664 85.0536C135.109 86.8607 134.768 89.5449 135.813 91.7484C136.316 92.8074 137.939 94.2758 139.02 94.6486C140.17 95.0452 141.988 95.0462 143.135 94.6505C144.249 94.2663 145.722 92.9184 146.316 91.7403C146.944 90.4949 147.046 88.2072 146.536 86.8258C145.74 84.6704 143.741 83.2488 141.362 83.1467C140.577 83.1129 139.799 83.1832 139.369 83.3268ZM2.92744 88.9856V94.7172H4.18413H5.44083V90.1855V85.6539H7.28398H9.12713V90.1855V94.7172H10.4698H11.8126L11.7684 89.0312L11.7243 83.3453L7.32587 83.2996L2.92744 83.2541V88.9856ZM15.113 88.6892C13.9466 91.6753 12.9428 94.2567 12.8821 94.4251C12.7811 94.7066 12.8857 94.7276 14.1574 94.6816L15.5426 94.6317L15.8878 93.6435L16.2332 92.6552L18.2514 92.7029L20.2698 92.7506L20.6016 93.7339L20.9334 94.7172H22.337C23.393 94.7172 23.7199 94.6642 23.6567 94.5034C23.6105 94.386 22.6105 91.8079 21.4344 88.7747L19.296 83.2598H18.265H17.2338L15.113 88.6892ZM24.7102 88.9885V94.7172H25.9901H27.2701L27.1884 90.5248C27.1433 88.219 27.1287 86.3552 27.1558 86.3827C27.2053 86.4331 27.9962 88.9515 29.1424 92.7079L29.7555 94.7172H30.6377H31.5201L32.7495 90.7413C33.4258 88.5545 34.0402 86.65 34.1149 86.5089C34.1897 86.3678 34.2532 88.1571 34.256 90.4848L34.261 94.7172H35.3502H36.4393V88.9885V83.2598H34.7954H33.1513L32.0003 86.9792C31.3673 89.0247 30.8014 90.7981 30.7431 90.9197C30.6511 91.1115 29.9819 89.1564 28.5454 84.4996L28.1629 83.2598H26.4365H24.7102V88.9885ZM41.0837 83.4465C39.2287 83.8922 38.2788 85.148 38.2861 87.1447C38.2922 88.7876 39.0011 89.9519 40.3441 90.5246C41.0631 90.8312 41.082 90.7587 39.8763 92.3231C39.4053 92.9345 38.8073 93.7233 38.5474 94.0759L38.0752 94.7172L39.5611 94.7141L41.0472 94.7109L42.3877 92.754L43.7281 90.7971L43.7754 92.7571L43.8225 94.7172H45.074H46.3253V88.9885V83.2598L44.0214 83.2769C42.7543 83.2865 41.4322 83.3627 41.0837 83.4465ZM47.5673 83.4939C47.5188 83.6227 47.5022 84.1422 47.5306 84.6482L47.582 85.5684L48.713 85.619L49.8441 85.6694V90.1934V94.7172H51.1007H52.3574V90.1855V85.6539H53.4466H54.5357V84.4568V83.2598H51.0956C48.3382 83.2598 47.6378 83.3063 47.5673 83.4939ZM55.8269 83.367C55.7619 83.4333 55.7086 86.0212 55.7086 89.1176V94.7473L58.3477 94.6895C60.7956 94.6358 61.0409 94.6007 61.7342 94.2042C63.0948 93.4261 63.662 91.9577 63.2706 90.2269C62.8844 88.5196 61.8844 87.7863 59.6833 87.5963L58.3995 87.4857L58.3527 85.4155L58.3058 83.3453L57.1255 83.2957C56.4764 83.2685 55.8921 83.3006 55.8269 83.367ZM69.7836 88.9856V94.7172H71.0403H72.297V90.1855V85.6539H74.1402H75.9833V90.1855V94.7172H77.326H78.6688L78.6246 89.0312L78.5805 83.3453L74.1821 83.2996L69.7836 83.2541V88.9856ZM92.069 84.4568V85.6539H93.1581H94.2473V90.1855V94.7172H95.504H96.7607V90.1855V85.6539H97.9336H99.1065V84.4568V83.2598H95.5878H92.069V84.4568ZM112.511 88.9825V94.7172H113.681H114.851L114.896 90.5019L114.941 86.2864L116.221 90.4591L117.501 94.6317L118.399 94.6816L119.297 94.7316L120.539 90.715C121.221 88.5059 121.825 86.6243 121.879 86.5339C121.934 86.4434 121.955 88.2477 121.926 90.5433L121.873 94.7172H123.057H124.24V88.9885V83.2598H122.577H120.913L119.97 86.2951C119.452 87.9647 118.892 89.7537 118.726 90.271L118.425 91.2116L117.179 87.2784L115.933 83.3453L114.222 83.2965L112.511 83.2478V88.9825ZM126.586 88.9885V94.7172H127.838H129.091L129.137 92.2024L129.183 89.6876L130.775 92.202L132.367 94.7165L133.833 94.7169C134.64 94.717 135.299 94.6729 135.299 94.6187C135.299 94.5643 134.457 93.3211 133.428 91.8558C132.399 90.3906 131.557 89.1031 131.557 88.9948C131.557 88.8866 132.348 87.6481 133.314 86.2426C134.281 84.8371 135.127 83.5912 135.195 83.4735C135.29 83.3097 135.005 83.2598 133.978 83.2598H132.636L130.91 85.8584L129.183 88.457L129.137 85.8584L129.091 83.2598H127.839H126.586V88.9885ZM148.537 88.9698V94.7172L151.008 94.7162C153.737 94.7151 154.477 94.5761 155.24 93.9206C155.993 93.2737 156.299 92.5511 156.314 91.3826C156.33 90.1681 155.937 89.3505 155.125 88.9073L154.592 88.6165L155.116 88.0808C155.573 87.6151 155.649 87.405 155.702 86.4713C155.781 85.0612 155.416 84.3583 154.303 83.773C153.565 83.3855 153.259 83.34 151.013 83.284L148.537 83.2225V88.9698ZM87.257 85.719C87.9142 86.0066 88.8014 86.9359 89.0427 87.5888C89.3215 88.3436 89.2507 89.9318 88.9038 90.6985C87.8899 92.9406 85.1962 93.3008 83.5711 91.4116C81.2452 88.7084 84.0813 84.3282 87.257 85.719ZM106.575 85.8308C107.676 86.375 108.221 87.3207 108.295 88.8154C108.344 89.7958 108.288 90.1816 108.02 90.7141C107.601 91.5491 107.072 92.0598 106.273 92.4004C105.018 92.9355 103.601 92.5364 102.672 91.3865C100.316 88.4695 103.305 84.2152 106.575 85.8308ZM142.959 86.099C144.354 87.2314 144.73 89.0791 143.908 90.762C143.288 92.0309 142.437 92.58 141.092 92.5786C139.778 92.5774 138.987 92.0989 138.31 90.894C137.255 89.0165 137.88 86.7649 139.74 85.7421C140.093 85.548 140.552 85.4834 141.283 85.5247C142.139 85.5733 142.437 85.6756 142.959 86.099ZM43.8119 87.3838V89.1138L42.7281 89.0434C41.8892 88.9888 41.5519 88.8842 41.2344 88.5798C40.7064 88.0736 40.5658 87.4771 40.8021 86.7464C41.0467 85.9895 41.6506 85.6693 42.8485 85.6607L43.8119 85.6539V87.3838ZM152.904 85.8308C153.14 85.9596 153.228 86.1905 153.228 86.6761C153.228 87.5301 152.782 87.8769 151.683 87.8769H150.882V86.7654V85.6539H151.731C152.198 85.6539 152.726 85.7336 152.904 85.8308ZM18.921 88.5579C19.2481 89.5906 19.5158 90.4756 19.5158 90.5245C19.5158 90.5732 18.9503 90.613 18.2591 90.613C17.5679 90.613 17.0024 90.5732 17.0024 90.5245C17.0024 90.3323 18.1963 86.6799 18.2591 86.6799C18.296 86.6799 18.5937 87.525 18.921 88.5579ZM60.0652 89.9793C60.2956 90.0981 60.5808 90.4012 60.6987 90.6525C61.1704 91.6562 60.4284 92.4941 59.0682 92.4941H58.3896V91.1261V89.758L59.0179 89.7606C59.3636 89.7619 59.8348 89.8604 60.0652 89.9793ZM153.457 90.2835C153.99 90.7115 154.04 91.4226 153.578 92.0049C153.298 92.358 153.114 92.4086 152.112 92.4086H150.966L150.917 91.1688L150.868 89.929H151.941C152.774 89.929 153.115 90.0085 153.457 90.2835Z" fill="white"/>
</svg>
