<svg width="20" height="20" viewBox="0 0 20 20" fill="none" xmlns="http://www.w3.org/2000/svg">
<path d="M19.911 15.9392L19.8114 15.6392C19.5757 14.9384 18.8029 14.2076 18.0929 14.015L15.4654 13.2972C14.7528 13.1034 13.7364 13.364 13.215 13.8853L12.2641 14.8363C8.80804 13.9024 6.09799 11.1923 5.16538 7.73693L6.11639 6.78592C6.63773 6.26458 6.89835 5.24948 6.7045 4.53693L5.988 1.90806C5.79414 1.1968 5.06193 0.424016 4.3625 0.190843L4.06255 0.089995C3.36178 -0.143178 2.36236 0.0926356 1.84106 0.613933L0.418548 2.03774C0.164418 2.29053 0.00199728 3.01357 0.00199728 3.01621C-0.0477558 7.53255 1.72315 11.8838 4.91783 15.0786C8.10467 18.2654 12.4396 20.0337 16.9429 19.9957C16.9664 19.9957 17.7104 19.8359 17.9645 19.5831L19.387 18.1606C19.9083 17.6393 20.1441 16.6399 19.911 15.9392Z" fill="url(#paint0_linear_57_28)"/>
<path d="M19.911 15.9392L19.8114 15.6392C19.5757 14.9384 18.8029 14.2076 18.0929 14.015L15.4654 13.2972C14.7528 13.1034 13.7364 13.364 13.215 13.8853L12.2641 14.8363C8.80804 13.9024 6.09799 11.1923 5.16538 7.73693L6.11639 6.78592C6.63773 6.26458 6.89835 5.24948 6.7045 4.53693L5.988 1.90806C5.79414 1.1968 5.06193 0.424016 4.3625 0.190843L4.06255 0.089995C3.36178 -0.143178 2.36236 0.0926356 1.84106 0.613933L0.418548 2.03774C0.164418 2.29053 0.00199728 3.01357 0.00199728 3.01621C-0.0477558 7.53255 1.72315 11.8838 4.91783 15.0786C8.10467 18.2654 12.4396 20.0337 16.9429 19.9957C16.9664 19.9957 17.7104 19.8359 17.9645 19.5831L19.387 18.1606C19.9083 17.6393 20.1441 16.6399 19.911 15.9392Z" fill="url(#paint1_linear_57_28)" fill-opacity="0.4"/>
<path d="M19.911 15.9392L19.8114 15.6392C19.5757 14.9384 18.8029 14.2076 18.0929 14.015L15.4654 13.2972C14.7528 13.1034 13.7364 13.364 13.215 13.8853L12.2641 14.8363C8.80804 13.9024 6.09799 11.1923 5.16538 7.73693L6.11639 6.78592C6.63773 6.26458 6.89835 5.24948 6.7045 4.53693L5.988 1.90806C5.79414 1.1968 5.06193 0.424016 4.3625 0.190843L4.06255 0.089995C3.36178 -0.143178 2.36236 0.0926356 1.84106 0.613933L0.418548 2.03774C0.164418 2.29053 0.00199728 3.01357 0.00199728 3.01621C-0.0477558 7.53255 1.72315 11.8838 4.91783 15.0786C8.10467 18.2654 12.4396 20.0337 16.9429 19.9957C16.9664 19.9957 17.7104 19.8359 17.9645 19.5831L19.387 18.1606C19.9083 17.6393 20.1441 16.6399 19.911 15.9392Z" fill="url(#paint2_radial_57_28)" fill-opacity="0.4"/>
<defs>
<linearGradient id="paint0_linear_57_28" x1="7.73478" y1="0" x2="7.73478" y2="19.9963" gradientUnits="userSpaceOnUse">
<stop offset="0.0701345" stop-color="#FC574D"/>
<stop offset="1" stop-color="#EA2D1D"/>
</linearGradient>
<linearGradient id="paint1_linear_57_28" x1="10.001" y1="0" x2="10.001" y2="19.9963" gradientUnits="userSpaceOnUse">
<stop stop-color="#FF9D97" stop-opacity="0.88"/>
<stop offset="0.425069" stop-color="#FF9D97" stop-opacity="0"/>
</linearGradient>
<radialGradient id="paint2_radial_57_28" cx="0" cy="0" r="1" gradientUnits="userSpaceOnUse" gradientTransform="translate(10.001 9.21909) rotate(90) scale(16.2308 16.3857)">
<stop offset="0.377735" stop-color="#FC574D" stop-opacity="0"/>
<stop offset="0.995926" stop-color="#FC574D"/>
</radialGradient>
</defs>
</svg>
