<svg width="60" height="60" viewBox="0 0 60 60" fill="none" xmlns="http://www.w3.org/2000/svg">
<path fill-rule="evenodd" clip-rule="evenodd" d="M26.5102 2.53286L23.2466 5.05594L19.3502 4.52164C17.2071 4.22776 15.3358 3.96795 15.1916 3.94434C14.949 3.9045 14.8141 4.19227 13.3696 7.8346L11.8095 11.7679L7.93873 13.298C5.80985 14.1396 4.04684 14.8466 4.02078 14.8692C3.99472 14.8918 4.22865 16.7793 4.54041 19.0636L5.10746 23.2169L2.50402 26.6025C0.818008 28.795 -0.0631471 30.0339 0.00352348 30.118C0.0600996 30.1895 1.17718 31.6493 2.48583 33.3619C3.79447 35.0746 4.90569 36.5287 4.9551 36.5933C5.00464 36.6579 4.78866 38.5615 4.47538 40.8235C4.16198 43.0855 3.94213 44.9727 3.98686 45.0172C4.03146 45.0617 5.75832 45.7671 7.82417 46.5848C9.89002 47.4024 11.6391 48.1327 11.7109 48.2076C11.7827 48.2826 12.4635 49.9302 13.2237 51.8691C13.9839 53.8079 14.6742 55.5302 14.7578 55.6962L14.9098 55.9983L19.0411 55.4273L23.1726 54.8561L24.7126 56.0341C25.5595 56.6819 27.0712 57.8392 28.0718 58.6059L29.8912 60L33.228 57.4327C35.0632 56.0208 36.6214 54.8677 36.6907 54.8703C36.7598 54.873 38.6321 55.1282 40.8511 55.4376L44.8857 56L45.0617 55.5795C45.1585 55.3484 45.844 53.6258 46.5851 51.7516C47.3263 49.8773 47.9933 48.2817 48.0674 48.2057C48.1414 48.1298 49.9172 47.3734 52.0135 46.5249C54.1096 45.6765 55.835 44.972 55.8473 44.9593C55.8597 44.9466 55.611 43.0667 55.2946 40.7818L54.7192 36.6274L56.9698 33.7902C58.2075 32.2297 59.3957 30.7357 59.6102 30.4701L60 29.987L57.4264 26.6343L54.8527 23.2818L55.4292 19.127C55.7462 16.8419 56.0061 14.9678 56.0067 14.9623C56.0073 14.9567 54.2392 14.2494 52.0777 13.3903L48.1477 11.8283L46.5994 7.90687C45.7479 5.75005 44.9943 3.98769 44.9247 3.99028C44.8551 3.99298 42.9794 4.24868 40.7565 4.55854L36.7148 5.12186L33.3875 2.55612C31.5575 1.14488 29.9958 -0.00538629 29.917 1.89725e-05C29.8383 0.00530673 28.3052 1.14511 26.5102 2.53286ZM41.1732 21.3938C42.3949 22.4645 42.399 22.4701 42.1791 22.7158C42.0578 22.8516 38.7999 26.6376 34.9395 31.1293C31.0791 35.621 27.8269 39.396 27.7123 39.518C27.4885 39.7569 27.6361 39.8721 19.1787 32.8616L17.5044 31.4737L18.4601 30.3045C18.9859 29.6615 19.4845 29.0786 19.5682 29.009C19.6844 28.9125 20.5702 29.58 23.3183 31.8345C25.2971 33.458 26.9781 34.8059 27.0538 34.8299C27.1295 34.8539 30.0174 31.5992 33.4712 27.5973C36.9251 23.5954 39.7949 20.3206 39.8487 20.3199C39.9026 20.3194 40.4985 20.8025 41.1732 21.3938Z" fill="#1964AA"/>
</svg>
