<svg width="59" height="14" viewBox="0 0 59 14" fill="none" xmlns="http://www.w3.org/2000/svg">
<path d="M28.4286 12.7264L28.5032 12.232L28.4286 12.7264ZM58.4893 4.55182C58.5461 4.28159 58.3731 4.01646 58.1029 3.95963L53.6992 3.03359C53.429 2.97677 53.1638 3.14977 53.107 3.42C53.0502 3.69023 53.2232 3.95536 53.4934 4.01219L57.4078 4.83534L56.5847 8.74972C56.5278 9.01996 56.7008 9.28509 56.9711 9.34192C57.2413 9.39874 57.5064 9.22574 57.5633 8.95551L58.4893 4.55182ZM1 1C0.687001 1.38991 0.687148 1.39003 0.687339 1.39018C0.687462 1.39028 0.687698 1.39047 0.687944 1.39067C0.688436 1.39106 0.689105 1.3916 0.689952 1.39227C0.691645 1.39363 0.694046 1.39554 0.697152 1.39802C0.703365 1.40296 0.712396 1.41013 0.724217 1.41945C0.74786 1.4381 0.782666 1.46539 0.828405 1.50081C0.919883 1.57167 1.0551 1.67509 1.23224 1.80708C1.5865 2.07106 2.1085 2.44941 2.78359 2.9102C4.1336 3.83165 6.0969 5.0835 8.55629 6.40989C13.4723 9.06117 20.3853 12.0184 28.354 13.2208L28.5032 12.232C20.6834 11.052 13.8821 8.14605 9.03097 5.52973C6.60676 4.22232 4.67325 2.98926 3.34734 2.08426C2.68448 1.63182 2.17374 1.26155 1.82976 1.00523C1.65777 0.877068 1.52749 0.77741 1.44075 0.710225C1.39738 0.676633 1.3649 0.651161 1.34353 0.634305C1.33284 0.625877 1.32494 0.619604 1.31984 0.615547C1.31729 0.613518 1.31545 0.612044 1.3143 0.611132C1.31373 0.610675 1.31334 0.61036 1.31312 0.610185C1.31301 0.610098 1.31298 0.610074 1.31293 0.61003C1.31294 0.610041 1.313 0.610088 1 1ZM28.354 13.2208C35.3455 14.2757 42.8404 12.1657 48.5468 9.82629C51.4077 8.65341 53.836 7.41577 55.5494 6.47115C56.4064 5.9987 57.0853 5.59916 57.5509 5.31713C57.7837 5.17611 57.9632 5.06443 58.0851 4.98767C58.146 4.94929 58.1925 4.91964 58.2241 4.89941C58.2398 4.88929 58.2519 4.88153 58.2601 4.87621C58.2642 4.87356 58.2673 4.87151 58.2695 4.87008C58.2706 4.86937 58.2715 4.86881 58.2721 4.86841C58.2724 4.86821 58.2727 4.86802 58.2729 4.86792C58.2731 4.86778 58.2732 4.86767 58 4.44893C57.7268 4.03019 57.7268 4.03016 57.7268 4.03018C57.7267 4.03023 57.7266 4.03029 57.7264 4.0304C57.7261 4.03063 57.7255 4.03101 57.7247 4.03155C57.723 4.03263 57.7204 4.03432 57.7168 4.03663C57.7097 4.04124 57.6988 4.04829 57.6841 4.05769C57.6548 4.07649 57.6106 4.10468 57.5521 4.14158C57.4349 4.21537 57.2604 4.32397 57.0328 4.46182C56.5776 4.73755 55.9105 5.13019 55.0666 5.59541C53.3783 6.52616 50.9851 7.74588 48.1675 8.90103C42.5167 11.2176 35.2259 13.2464 28.5032 12.232L28.354 13.2208Z" fill="url(#paint0_linear_154_91)"/>
<defs>
<linearGradient id="paint0_linear_154_91" x1="61.5" y1="1" x2="1" y2="1" gradientUnits="userSpaceOnUse">
<stop stop-color="white"/>
<stop offset="1" stop-color="white" stop-opacity="0"/>
</linearGradient>
</defs>
</svg>
