<svg width="20" height="20" viewBox="0 0 20 20" fill="none" xmlns="http://www.w3.org/2000/svg">
<path fill-rule="evenodd" clip-rule="evenodd" d="M9.05136 0.0242827C7.18055 0.218845 5.47824 0.886875 3.95823 2.02305C3.4642 2.39237 2.39996 3.45618 2.03645 3.94409C1.07359 5.23655 0.449322 6.64263 0.174716 8.13744C-0.345905 10.9712 0.303434 13.7345 2.03645 16.0607C2.39996 16.5486 3.4642 17.6124 3.95823 17.9817C5.38359 19.0472 6.96305 19.6926 8.77715 19.951C9.23988 20.0169 10.7777 20.0161 11.2608 19.9497C13.5245 19.6384 15.5518 18.6344 17.0937 17.0609C17.585 16.5596 17.7019 16.4263 18.0162 16.0103C19.0308 14.6669 19.6967 13.0233 19.9509 11.2353C20.0164 10.7748 20.0164 9.22978 19.9509 8.76951C19.726 7.18824 19.1679 5.6901 18.3473 4.46418C16.7395 2.06251 14.2677 0.501979 11.3977 0.0767294C10.9179 0.00561317 9.52924 -0.0253852 9.05136 0.0242827ZM10.3748 3.67634C10.4588 3.72237 10.5668 3.82977 10.6193 3.91924L10.7132 4.07967V6.86471V9.64979L12.4328 11.0265C13.7244 12.0605 14.1693 12.4381 14.22 12.5433C14.2571 12.6204 14.2878 12.7753 14.2883 12.8876C14.2899 13.2635 13.9816 13.5641 13.5945 13.5641C13.4898 13.5641 13.3487 13.537 13.2809 13.504C13.1065 13.4189 9.50221 10.515 9.40501 10.3811C9.32585 10.2722 9.32456 10.2267 9.31424 7.1783L9.30375 4.08593L9.39097 3.93063C9.52873 3.68538 9.83932 3.53098 10.107 3.57465C10.1715 3.58522 10.292 3.63098 10.3748 3.67634Z" fill="white"/>
</svg>
