<svg width="28" height="102" viewBox="0 0 28 102" fill="none" xmlns="http://www.w3.org/2000/svg">
<path fill-rule="evenodd" clip-rule="evenodd" d="M0.994154 0.30408C-0.294602 0.992043 -0.275766 -1.49542 0.735714 34.2747C1.47498 60.4209 1.70972 66.8704 1.93859 67.3055C2.5373 68.4444 2.38256 68.43 14.0047 68.43C25.6375 68.43 25.4714 68.4456 26.075 67.2976C26.4898 66.5084 28.3191 2.19244 27.9515 1.31959C27.8178 1.00201 27.4277 0.573647 27.0846 0.367835C26.4918 0.0123973 25.8419 -0.0059325 14.0047 0.00104078C3.38087 0.00721711 1.46688 0.0518461 0.994154 0.30408ZM2.41254 79.8696L1.75104 80.4508L1.68846 90.0805C1.64511 96.7425 1.69534 99.9433 1.8513 100.467C2.00037 100.967 2.29648 101.355 2.72404 101.612C3.34401 101.983 3.8216 102 14.0047 102C24.1877 102 24.6653 101.983 25.2853 101.612C25.7134 101.355 26.0083 100.967 26.157 100.467C26.3117 99.9455 26.3626 96.715 26.32 90.0805L26.2583 80.451L25.5968 79.8696L24.9353 79.2884H14.0047H3.07403L2.41254 79.8696Z" fill="#1964AA"/>
</svg>
