<svg width="24" height="30" viewBox="0 0 24 30" fill="none" xmlns="http://www.w3.org/2000/svg">
<path fill-rule="evenodd" clip-rule="evenodd" d="M10.7239 0.0173551C10.625 0.0310739 10.3283 0.0700023 10.0645 0.103771C5.45077 0.695025 1.50589 4.12453 0.354662 8.54501C0.0664809 9.65166 0.00126842 10.1956 9.72467e-06 11.5032C-0.00184835 13.5008 0.262178 14.6354 1.11869 16.3106C1.94919 17.935 3.0059 19.4033 7.74267 25.515L9.83283 28.2119L6.11266 28.2412C2.70033 28.2681 2.37643 28.2791 2.19829 28.3743C1.97502 28.4936 1.76314 28.8571 1.76314 29.1206C1.76314 29.4115 1.97514 29.7493 2.24109 29.882C2.47509 29.9988 2.57548 30 11.6529 30C20.7303 30 20.8307 29.9988 21.0647 29.882C21.3307 29.7493 21.5427 29.4115 21.5427 29.1206C21.5427 28.8571 21.3308 28.4936 21.1075 28.3743C20.9294 28.2791 20.6055 28.2681 17.1931 28.2412L13.473 28.2119L15.5631 25.515C17.9984 22.373 19.9495 19.8033 20.5934 18.8902C22.7285 15.8622 23.4375 13.8281 23.3213 11.0635C23.1949 8.05782 22.0336 5.44382 19.8957 3.35265C18.1124 1.60838 15.9919 0.547696 13.4502 0.128688C12.9056 0.0389299 11.0995 -0.034823 10.7239 0.0173551ZM12.7318 3.58604C14.5036 3.82014 16.0653 4.58235 17.3519 5.84084C21.1012 9.50808 20.3142 15.4984 15.7287 18.1964C14.1725 19.1121 12.3393 19.4868 10.604 19.2438C8.53421 18.954 6.65821 17.8972 5.32004 16.2672C3.15364 13.6283 2.99307 9.9068 4.92235 7.04955C5.44915 6.26935 6.39305 5.34615 7.18753 4.8341C8.84925 3.76298 10.7808 3.3282 12.7318 3.58604ZM10.8737 7.10965C9.28104 7.44546 8.05872 8.93318 8.05872 10.5358C8.05872 12.1534 9.28625 13.6331 10.9037 13.9653C12.1237 14.2158 13.2854 13.8743 14.1757 13.0035C15.6043 11.6062 15.6043 9.4654 14.1757 8.06814C13.2832 7.19518 12.0988 6.85134 10.8737 7.10965ZM7.41193 14.3585C7.28373 14.5293 7.10194 14.8083 7.00789 14.9785L6.83695 15.288L7.07215 15.5293C8.22002 16.7064 9.48728 17.3459 11.0163 17.5198C12.922 17.7364 14.7682 17.0321 16.2337 15.5293L16.4689 15.288L16.2979 14.9785C16.2039 14.8083 16.0221 14.5293 15.8939 14.3585L15.6608 14.048L15.2902 14.3837C14.6051 15.0043 13.8097 15.4284 12.8766 15.6707C12.2984 15.8208 11.0074 15.8208 10.4292 15.6707C9.4961 15.4284 8.70066 15.0043 8.01563 14.3837L7.64497 14.048L7.41193 14.3585Z" fill="#1964AA"/>
</svg>
