<svg width="27" height="30" viewBox="0 0 27 30" fill="none" xmlns="http://www.w3.org/2000/svg">
<path fill-rule="evenodd" clip-rule="evenodd" d="M11.1553 0.0897947C10.8877 0.220264 10.7136 0.483723 10.6824 0.805735C10.6584 1.05355 10.7021 1.16737 11.1953 2.14208C11.7913 3.32 11.9071 3.45193 12.3798 3.49267C12.7322 3.52297 13.0226 3.37117 13.201 3.06334C13.4189 2.68752 13.3847 2.55019 12.77 1.33594C12.2273 0.263519 12.1948 0.214579 11.9551 0.106968C11.65 -0.0300074 11.4116 -0.0351066 11.1553 0.0897947ZM18.3732 0.0550381C18.2917 0.0889156 18.1618 0.174371 18.0845 0.24494C17.8979 0.415441 16.8914 2.42142 16.8914 2.62293C16.8914 2.87977 17.1359 3.28336 17.3656 3.40575C17.6225 3.5426 18.0729 3.51787 18.3034 3.35423C18.5276 3.19515 19.5585 1.17241 19.5585 0.891543C19.5585 0.614662 19.4058 0.311054 19.1901 0.159191C18.9874 0.016413 18.5886 -0.0344619 18.3732 0.0550381ZM7.59071 5.39684C6.97545 5.71176 6.94801 6.55108 7.54134 6.90879C7.71618 7.01423 7.84148 7.02531 8.86154 7.02548C10.1472 7.02577 10.2958 6.98627 10.5373 6.58003C10.7728 6.18411 10.6529 5.72958 10.2308 5.41753C10.0816 5.30722 9.97074 5.29521 8.96016 5.27962C7.90442 5.26338 7.84088 5.26883 7.59071 5.39684ZM20.1186 5.34983C19.7468 5.50996 19.4857 5.99439 19.5893 6.33193C19.6707 6.59732 19.8589 6.83845 20.0574 6.93159C20.2196 7.00772 20.4716 7.02566 21.3751 7.02548C22.3853 7.02531 22.5108 7.01411 22.6854 6.90879C23.2886 6.5451 23.2534 5.66487 22.6244 5.38248C22.4075 5.28507 22.2342 5.27006 21.3365 5.27094C20.6064 5.27165 20.2458 5.29497 20.1186 5.34983ZM12.9456 5.44039C12.6295 5.60028 12.4463 5.91919 12.4463 6.30948C12.4463 7.37111 12.1139 9.23244 11.6955 10.5131C10.9342 12.8435 9.9957 13.9234 7.77895 15.0198L7.11218 15.3496V21.9688V28.588L8.01602 28.8803C9.20447 29.2646 9.88676 29.451 10.7222 29.6197C12.3869 29.956 13.1373 30.0003 17.1581 30C20.9391 29.9997 21.0334 29.9923 21.6966 29.6427C22.0397 29.4619 22.5406 29.01 22.7609 28.6827C23.0777 28.2118 23.2009 27.3085 23.0348 26.675L22.955 26.3707L23.1681 26.3015C23.8995 26.0641 24.5605 25.3558 24.7982 24.5546C24.9142 24.1636 24.9193 23.4988 24.8091 23.1397L24.7269 22.8718L25.1129 22.7054C25.6707 22.4651 26.1453 22.0092 26.4151 21.4546C26.6055 21.063 26.6338 20.9458 26.6581 20.4447C26.6906 19.7777 26.5628 19.2999 26.2266 18.8324C26.1155 18.6779 26.0414 18.5232 26.0619 18.4886C26.0824 18.454 26.1604 18.345 26.2352 18.2464C26.31 18.1478 26.4411 17.884 26.5266 17.6603C26.6636 17.3018 26.6795 17.1873 26.6597 16.6966C26.6406 16.2225 26.6101 16.0833 26.4539 15.7588C26.114 15.0526 25.518 14.5446 24.7191 14.2801C24.3372 14.1536 24.2571 14.1507 20.6112 14.1308L16.8927 14.1106L17.0026 13.8943C17.3839 13.1439 17.7432 10.8929 17.7481 9.22365C17.7503 8.45578 17.7307 8.22743 17.6398 7.9635C17.2248 6.75839 16.3618 5.89269 15.2069 5.52321C14.8219 5.39995 14.5773 5.3649 13.9577 5.34409C13.2629 5.3207 13.1634 5.33014 12.9456 5.44039ZM0.675064 14.1714C0.436747 14.2301 0.247326 14.3634 0.110417 14.5687C0.00521554 14.7265 0.000770485 15.0307 0.000414875 22.0656L0 29.398L0.134539 29.5972C0.406639 30 0.442971 30.0055 2.70725 29.9879C4.64763 29.9728 4.73985 29.9671 4.8965 29.8513C4.98647 29.7848 5.11508 29.6576 5.18229 29.5686C5.30397 29.4075 5.30456 29.3757 5.32021 22.1575L5.33597 14.9082L5.20167 14.6462C4.94901 14.1531 4.9272 14.1485 2.75597 14.1365C1.71285 14.1308 0.776472 14.1465 0.675064 14.1714Z" fill="#1964AA"/>
</svg>
