<svg width="30" height="30" viewBox="0 0 30 30" fill="none" xmlns="http://www.w3.org/2000/svg">
<path fill-rule="evenodd" clip-rule="evenodd" d="M14.5311 0.17809C13.5561 0.780516 0.294546 9.46627 0.180126 9.57728C0.0992924 9.65579 0.0307104 9.80788 0.0114253 9.95152C-0.0178833 10.1703 -0.00111875 10.2134 0.185811 10.4006C0.525615 10.7407 0.682768 10.7062 1.64796 10.0795C2.09532 9.78905 2.47299 9.55141 2.48724 9.55141C2.50148 9.55141 2.52006 13.8619 2.5285 19.1303L2.54386 28.7091L2.67827 28.9611C2.88548 29.3496 3.19586 29.6577 3.56023 29.8369L3.89206 30H15H26.108L26.4429 29.8354C26.8538 29.6334 27.207 29.2443 27.3663 28.8183C27.4843 28.5025 27.4855 28.4075 27.4855 19.0254C27.4855 13.8147 27.5052 9.55141 27.5294 9.55141C27.5536 9.55141 27.824 9.72526 28.1303 9.93773C29.1946 10.6761 29.4648 10.7503 29.8142 10.4006C30.0012 10.2134 30.0179 10.1704 29.9885 9.95129C29.967 9.79028 29.9006 9.65609 29.7905 9.55106C29.6995 9.4641 26.395 7.28669 22.4472 4.71228C17.2041 1.29317 15.2134 0.0244172 15.0614 0.00517142C14.8987 -0.0154239 14.7834 0.0221875 14.5311 0.17809ZM19.5957 8.81174C19.8478 8.91718 19.9825 9.11345 19.9825 9.37538C19.9825 9.63731 19.8478 9.83358 19.5957 9.93902C19.3054 10.0604 10.6946 10.0604 10.4044 9.93902C10.1523 9.83358 10.0176 9.63731 10.0176 9.37538C10.0176 9.11856 10.1503 8.91929 10.3914 8.81426C10.6661 8.69462 19.31 8.69227 19.5957 8.81174ZM19.8111 12.07C20.09 12.3491 20.0291 12.8324 19.69 13.0329C19.5397 13.1218 19.1163 13.1306 15 13.1306C10.8837 13.1306 10.4603 13.1218 10.3101 13.0329C9.97089 12.8324 9.91005 12.3491 10.1889 12.07L10.3602 11.8984H15H19.6398L19.8111 12.07ZM21.8582 23.1642V28.7971H21.2427H20.6273V26.9195V25.0419H18.1368H15.6464L15.631 26.9048L15.6155 28.7678H15H14.3845L14.3691 26.9048L14.3536 25.0419H11.8632H9.37276V26.9195V28.7971H8.75728H8.1418V23.1642V17.5313H15H21.8582V23.1642ZM12.1762 18.864C12.09 18.9176 11.9911 19.0237 11.9564 19.0999C11.9149 19.1911 11.8933 20.0093 11.8933 21.4947V23.751H15H18.1067V21.489C18.1067 19.0356 18.0996 18.9767 17.786 18.8337C17.6739 18.7825 16.915 18.764 14.9826 18.7651C12.6183 18.7665 12.316 18.7772 12.1762 18.864Z" fill="#1964AA"/>
</svg>
