<svg width="30" height="30" viewBox="0 0 30 30" fill="none" xmlns="http://www.w3.org/2000/svg">
<path fill-rule="evenodd" clip-rule="evenodd" d="M5.8188 0.0781167C5.45543 0.263626 5.36886 0.464091 5.34665 1.17158L5.32678 1.80207H3.01117C0.451752 1.80207 0.428074 1.80518 0.16381 2.17585C0.0345202 2.35725 0.0329378 2.38487 0.0165275 4.7199L0 7.08056H14.0991H28.1982L28.1816 4.7199C28.1652 2.38487 28.1636 2.35725 28.0343 2.17585C27.7704 1.80559 27.7439 1.80207 25.2111 1.80207H22.9196V1.23909C22.9196 0.596053 22.836 0.351014 22.5461 0.144039C22.2903 -0.0384792 21.7906 -0.0384792 21.5349 0.144039C21.2449 0.351014 21.1614 0.596053 21.1614 1.23909V1.80207H19.4031H17.6449V1.23909C17.6449 0.596053 17.5613 0.351014 17.2714 0.144039C17.0156 -0.0384792 16.5159 -0.0384792 16.2601 0.144039C15.9702 0.351014 15.8866 0.596053 15.8866 1.23909V1.80207H14.1284H12.3701V1.23909C12.3701 0.596053 12.2866 0.351014 11.9966 0.144039C11.7409 -0.0384792 11.2412 -0.0384792 10.9854 0.144039C10.6955 0.351014 10.6119 0.596053 10.6119 1.23909V1.80207H8.85364H7.0954V1.23909C7.0954 0.599983 7.01159 0.350721 6.72904 0.149376C6.49607 -0.0166028 6.06976 -0.0499746 5.8188 0.0781167ZM7.0954 3.21547C7.0954 4.78213 7.07043 4.9121 6.72189 5.16095C6.46612 5.34347 5.96643 5.34347 5.71066 5.16095C5.36212 4.9121 5.33715 4.78213 5.33715 3.21547V1.80207H6.21628H7.0954V3.21547ZM12.3701 3.21547C12.3701 4.78213 12.3452 4.9121 11.9966 5.16095C11.7409 5.34347 11.2412 5.34347 10.9854 5.16095C10.6369 4.9121 10.6119 4.78213 10.6119 3.21547V1.80207H11.491H12.3701V3.21547ZM17.6449 3.21547C17.6449 4.78213 17.6199 4.9121 17.2714 5.16095C17.0156 5.34347 16.5159 5.34347 16.2601 5.16095C15.9116 4.9121 15.8866 4.78213 15.8866 3.21547V1.80207H16.7657H17.6449V3.21547ZM22.9196 3.21547C22.9196 4.78213 22.8946 4.9121 22.5461 5.16095C22.2903 5.34347 21.7906 5.34347 21.5349 5.16095C21.1863 4.9121 21.1614 4.78213 21.1614 3.21547V1.80207H22.0405H22.9196V3.21547ZM0.00380953 17.288C0.00380953 25.639 0.00515752 25.7385 0.121788 25.9673C0.197744 26.1164 0.322228 26.2409 0.471151 26.3169C0.698727 26.4331 0.803929 26.435 7.06375 26.435C10.5625 26.435 13.4251 26.4255 13.4251 26.4139C13.4251 26.4023 13.3216 26.1687 13.1952 25.8949C12.7296 24.8862 12.4521 23.6948 12.3922 22.4468C12.35 21.5666 12.4077 20.9837 12.6412 19.9327L12.7893 19.2661L12.6421 19.1116C12.3519 18.8072 12.3007 18.4728 12.4881 18.1052C12.6234 17.8398 12.9597 17.6375 13.2657 17.6375C13.452 17.6375 13.478 17.6103 13.7444 17.1353C13.8994 16.859 14.1415 16.4762 14.2824 16.2847C14.4234 16.0931 14.5386 15.9233 14.5386 15.9072C14.5386 15.8912 14.2079 15.878 13.8037 15.878C12.9279 15.878 12.682 15.7906 12.4881 15.4104C12.3387 15.1172 12.3387 14.8793 12.4881 14.5862C12.6971 14.1764 12.8974 14.1185 14.1075 14.1185C15.0428 14.1185 15.1716 14.1308 15.4004 14.2416C15.5402 14.3093 15.6887 14.43 15.7306 14.5099L15.8065 14.6551L16.0957 14.4273C16.82 13.8569 17.5924 13.4122 18.4831 13.0528C19.3292 12.7115 20.0542 12.5397 21.2493 12.3975C21.346 12.386 21.1274 12.3727 20.7634 12.3678C19.9674 12.3573 19.7079 12.2578 19.5211 11.8914C19.3716 11.5982 19.3716 11.3604 19.5211 11.0672C19.7309 10.6558 19.9282 10.5995 21.1614 10.5995C22.1077 10.5995 22.2457 10.6122 22.4523 10.7176C22.7123 10.8504 22.9196 11.1883 22.9196 11.4793C22.9196 11.7613 22.7122 12.1074 22.4648 12.2381C22.2647 12.3438 22.2583 12.3542 22.3921 12.3583C22.8172 12.3711 23.957 12.5453 24.4552 12.6736C25.6447 12.9799 26.84 13.5539 27.7943 14.2771C27.9772 14.4157 28.142 14.5291 28.1606 14.5291C28.1792 14.5291 28.1943 13.2491 28.1943 11.6846V8.84005H14.0991H0.00380953V17.288ZM8.3863 10.7176C8.64635 10.8504 8.85364 11.1883 8.85364 11.4793C8.85364 11.7703 8.64635 12.1082 8.3863 12.241C8.17977 12.3464 8.04175 12.359 7.0954 12.359C5.86222 12.359 5.66489 12.3028 5.45513 11.8914C5.30574 11.5983 5.30568 11.3604 5.45502 11.0675C5.66454 10.6564 5.84406 10.6051 7.08309 10.6021C8.04479 10.5998 8.17877 10.6117 8.3863 10.7176ZM15.4193 10.7176C15.6793 10.8504 15.8866 11.1883 15.8866 11.4793C15.8866 11.7703 15.6793 12.1082 15.4193 12.241C15.2127 12.3464 15.0747 12.359 14.1284 12.359C12.8952 12.359 12.6979 12.3028 12.4881 11.8914C12.3387 11.5983 12.3387 11.3604 12.488 11.0675C12.6975 10.6564 12.877 10.6051 14.1161 10.6021C15.0778 10.5998 15.2118 10.6117 15.4193 10.7176ZM8.3863 14.2366C8.64635 14.3694 8.85364 14.7073 8.85364 14.9983C8.85364 15.2893 8.64635 15.6272 8.3863 15.76C8.17977 15.8654 8.04175 15.878 7.0954 15.878C5.86222 15.878 5.66489 15.8218 5.45513 15.4104C5.30574 15.1173 5.30568 14.8793 5.45502 14.5864C5.66454 14.1754 5.84406 14.1241 7.08309 14.1211C8.04479 14.1188 8.17877 14.1307 8.3863 14.2366ZM20.9855 14.267C19.304 14.502 17.7649 15.279 16.5265 16.5184C13.853 19.1937 13.4358 23.3075 15.5179 26.4623C16.0326 27.2422 16.9555 28.1657 17.7348 28.6808C19.2387 29.6748 21.0734 30.1377 22.821 29.9643C24.7106 29.7767 26.3354 29.0087 27.6717 27.6715C29.0079 26.3342 29.7754 24.7083 29.9628 22.8174C30.332 19.0935 27.916 15.5589 24.2729 14.4931C23.2572 14.196 22.0756 14.1148 20.9855 14.267ZM8.3863 17.7556C8.64635 17.8884 8.85364 18.2263 8.85364 18.5173C8.85364 18.8083 8.64635 19.1462 8.3863 19.279C8.17977 19.3844 8.04175 19.397 7.0954 19.397C5.86222 19.397 5.66489 19.3408 5.45513 18.9294C5.30574 18.6363 5.30568 18.3983 5.45502 18.1054C5.66454 17.6944 5.84406 17.6431 7.08309 17.6401C8.04479 17.6378 8.17877 17.6497 8.3863 17.7556ZM22.5109 17.8142C22.6598 17.8903 22.7843 18.0148 22.8602 18.1639C22.9688 18.3768 22.9782 18.5079 22.9782 19.8052V21.2152H24.3872C25.6836 21.2152 25.8146 21.2246 26.0274 21.3332C26.2874 21.466 26.4947 21.8039 26.4947 22.0949C26.4947 22.3859 26.2874 22.7238 26.0274 22.8566C25.8093 22.9679 25.6847 22.9747 23.8573 22.9747C22.0299 22.9747 21.9053 22.9679 21.6873 22.8566C21.5384 22.7806 21.4139 22.656 21.3379 22.507C21.2268 22.2888 21.22 22.1641 21.22 20.3354C21.22 18.5075 21.2268 18.3819 21.3378 18.1641C21.5544 17.7392 22.0655 17.5869 22.5109 17.8142ZM8.3863 21.2746C8.64635 21.4074 8.85364 21.7452 8.85364 22.0363C8.85364 22.3273 8.64635 22.6652 8.3863 22.798C8.17977 22.9034 8.04175 22.916 7.0954 22.916C5.86222 22.916 5.66489 22.8598 5.45513 22.4483C5.30574 22.1553 5.30568 21.9173 5.45502 21.6244C5.66454 21.2134 5.84406 21.1621 7.08309 21.1591C8.04479 21.1568 8.17877 21.1687 8.3863 21.2746Z" fill="#1964AA"/>
</svg>
