<svg width="18" height="18" viewBox="0 0 18 18" fill="none" xmlns="http://www.w3.org/2000/svg">
<path fill-rule="evenodd" clip-rule="evenodd" d="M4.41418 0.0350407C3.32799 0.174447 2.3401 0.645929 1.55433 1.39999C0.78763 2.13575 0.30772 2.99778 0.0755459 4.05614C0.00547827 4.37561 -0.00272563 4.50706 0.000619304 5.25968C0.00466844 6.17417 0.0653703 6.77182 0.243779 7.65364C1.19511 12.3557 4.73568 16.1838 9.36071 17.511C10.5276 17.8458 11.5907 17.998 12.7765 17.9999C13.486 18.0011 13.6308 17.9915 13.9451 17.9229C15.1867 17.6517 16.2628 16.9692 17.0023 15.9841C17.5675 15.2311 17.9287 14.2445 17.9919 13.2811C18.0181 12.8802 17.9843 12.7295 17.8371 12.5919C17.7378 12.4992 12.0807 10.217 11.8621 10.1815C11.7193 10.1584 11.5255 10.2408 11.4223 10.3685C11.3774 10.4243 11.1158 11.0322 10.8412 11.7195L10.3418 12.9693L10.1104 12.9619C9.98308 12.9577 9.72664 12.9226 9.54052 12.8837C7.24649 12.4048 5.47093 10.569 5.08088 8.27294C5.04095 8.03774 5.0132 7.80286 5.01929 7.75101C5.02975 7.66177 5.09816 7.62973 6.2979 7.15191C7.69193 6.59675 7.76249 6.55553 7.81115 6.26763C7.83394 6.13287 7.74834 5.90335 6.66771 3.20111C6.02531 1.59463 5.4667 0.238307 5.42635 0.18705C5.2814 0.0027942 4.9976 -0.0398374 4.41418 0.0350407ZM5.64719 3.48352C6.17435 4.80105 6.59979 5.88367 6.59261 5.88937C6.58546 5.89507 6.04915 6.11126 5.40086 6.36983C4.14031 6.87257 4.01145 6.94495 3.96162 7.17828C3.91803 7.38243 3.98018 8.18947 4.07465 8.64613C4.65374 11.4458 6.90066 13.574 9.71326 13.9868C10.021 14.032 10.4808 14.0572 10.8001 14.0464C10.8673 14.0441 10.9448 13.9988 11.0315 13.911C11.1417 13.7994 11.2348 13.596 11.6316 12.5996C11.8898 11.951 12.1058 11.4144 12.1115 11.4073C12.1172 11.4001 13.2021 11.8263 14.5224 12.3544L16.9228 13.3146L16.9024 13.5292C16.8567 14.0106 16.5868 14.7166 16.2616 15.2057C15.6459 16.1317 14.5885 16.7786 13.4378 16.9331C12.6882 17.0337 11.2136 16.8928 10.0797 16.6123C8.40243 16.1972 6.85651 15.4319 5.48808 14.3392C4.99081 13.9422 4.05736 13.0089 3.66012 12.5116C2.13374 10.6008 1.26307 8.38418 1.06603 5.90753C1.01861 5.31133 1.04089 4.58553 1.1173 4.23878C1.32867 3.27941 1.85882 2.43966 2.60995 1.87443C2.88227 1.66955 3.34612 1.4089 3.60579 1.31494C3.8867 1.21324 4.39312 1.09157 4.54262 1.08978L4.68867 1.08805L5.64719 3.48352Z" fill="#A8A8A8"/>
</svg>
