<svg width="13" height="18" viewBox="0 0 13 18" fill="none" xmlns="http://www.w3.org/2000/svg">
<path fill-rule="evenodd" clip-rule="evenodd" d="M5.66573 0.055587C2.63842 0.470546 0.340393 2.8846 0.0256833 5.98036C-0.0942871 7.16086 0.19736 8.30836 1.08405 10.1442C1.97086 11.9803 3.47755 14.3567 5.35675 16.8834C6.04479 17.8084 6.17352 17.95 6.35872 17.9851C6.59607 18.03 6.75866 17.9756 6.93093 17.7934C7.13816 17.5742 8.39633 15.8673 9.02146 14.9573C11.3469 11.572 12.6539 8.99052 12.9483 7.20115C13.1105 6.21575 12.8835 4.87041 12.3734 3.79389C11.7141 2.40246 10.7183 1.37001 9.37845 0.688641C8.24362 0.111518 6.91285 -0.115393 5.66573 0.055587ZM7.48842 1.29026C9.00272 1.59167 10.3587 2.5758 11.1198 3.92593C11.5529 4.69429 11.819 5.69159 11.8194 6.5475C11.8199 7.89104 10.7688 10.1545 8.64222 13.389C7.86057 14.5779 6.56665 16.39 6.49939 16.39C6.42976 16.39 5.16005 14.6147 4.36025 13.399C2.51353 10.5922 1.46222 8.48452 1.2265 7.11656C1.15339 6.69234 1.1773 6.04132 1.28508 5.52294C1.70815 3.48738 3.22729 1.87166 5.19202 1.36757C5.39219 1.31622 5.67216 1.25792 5.81416 1.23808C6.17481 1.18763 7.12086 1.21711 7.48842 1.29026ZM5.98595 2.89015C5.67815 2.94211 5.24842 3.09996 4.9458 3.27221C4.56826 3.48712 4.01985 4.04327 3.81044 4.42361C3.03119 5.83894 3.37938 7.5448 4.64639 8.51899C5.62101 9.26837 6.95155 9.34932 8.04961 8.72602C8.42645 8.51213 8.9733 7.9571 9.18405 7.57462C9.73604 6.57286 9.73604 5.42537 9.18405 4.42361C8.9733 4.04113 8.42645 3.48611 8.04961 3.27221C7.41739 2.91333 6.66929 2.77484 5.98595 2.89015ZM6.93739 4.10626C7.62654 4.27112 8.19985 4.85301 8.36229 5.55246C8.67999 6.92034 7.46979 8.19211 6.12029 7.90859C5.40336 7.75795 4.79914 7.16394 4.63234 6.44577C4.30754 5.04728 5.55951 3.7766 6.93739 4.10626Z" fill="#A8A8A8"/>
</svg>
