<svg width="15" height="15" viewBox="0 0 15 15" fill="none" xmlns="http://www.w3.org/2000/svg">
<rect width="15" height="15" rx="2" fill="#F5F5F5"/>
<path fill-rule="evenodd" clip-rule="evenodd" d="M11.9551 3.01013C11.9336 3.02007 10.7339 4.31974 9.28918 5.89829L6.66232 8.76837L5.36305 7.35024C4.13734 6.01237 4.05988 5.93208 3.99521 5.93208C3.93172 5.93208 3.8924 5.96959 3.46332 6.43962C3.06908 6.87147 3 6.9565 3 7.00984C3 7.0645 3.22658 7.32016 4.77246 9.00962C5.7473 10.075 6.57 10.9613 6.60064 10.979C6.64447 11.0044 6.66756 11.0062 6.70891 10.9875C6.73779 10.9744 8.16512 9.43079 9.88072 7.55721C12.614 4.57225 13 4.14294 13 4.08791C13 4.03436 12.9317 3.95072 12.5361 3.51959C12.281 3.24155 12.0547 3.00911 12.0332 3.00307C12.0117 2.99702 11.9766 3.00019 11.9551 3.01013Z" fill="#1964AA"/>
</svg>
